<svg width="912" height="743" viewBox="0 0 912 743" fill="none" xmlns="http://www.w3.org/2000/svg">
<g filter="url(#filter0_d_13_3)">
<path d="M220.73 332.425C220.73 332.425 205.39 186.425 309.81 166.765C414.23 147.105 433.64 163.595 506.37 113.675C579.1 63.7548 808.89 211.105 762.37 418.365C756.883 442.945 749.921 467.173 741.52 490.915" stroke="#CCDDE2" stroke-width="3.7" stroke-miterlimit="10"/>
<path d="M671.07 235.774H633.09V731.764H671.07V235.774Z" stroke="#CCDDE2" stroke-width="3.7" stroke-miterlimit="10"/>
<path d="M331.28 617.504V235.774H633.09V731.774H582.24V579.444C582.227 573.337 579.791 567.486 575.468 563.174C571.144 558.861 565.286 556.441 559.18 556.444H407.38C401.275 556.444 395.418 558.865 391.095 563.177C386.772 567.488 384.336 573.338 384.32 579.444V731.774H334.83M331.28 674.354V648.504M367.49 493.964C367.171 493.962 366.856 493.898 366.562 493.775C366.269 493.651 366.002 493.471 365.778 493.244C365.554 493.018 365.377 492.749 365.258 492.454C365.138 492.158 365.077 491.842 365.08 491.524V472.004C365.08 471.364 365.334 470.752 365.786 470.3C366.238 469.848 366.851 469.594 367.49 469.594H406.85C407.169 469.591 407.485 469.651 407.78 469.771C408.075 469.891 408.344 470.068 408.571 470.292C408.797 470.516 408.978 470.782 409.101 471.076C409.224 471.37 409.289 471.685 409.29 472.004V491.524C409.291 491.844 409.229 492.162 409.107 492.459C408.985 492.756 408.805 493.025 408.578 493.252C408.351 493.479 408.082 493.658 407.785 493.781C407.489 493.903 407.171 493.965 406.85 493.964H367.49ZM436.68 525.644C436.675 526.287 436.415 526.903 435.958 527.356C435.501 527.809 434.884 528.064 434.24 528.064H394.88C394.236 528.064 393.619 527.809 393.162 527.356C392.705 526.903 392.445 526.287 392.44 525.644V506.104C392.448 505.462 392.708 504.849 393.165 504.398C393.622 503.947 394.238 503.694 394.88 503.694H434.24C434.882 503.694 435.498 503.947 435.955 504.398C436.412 504.849 436.672 505.462 436.68 506.104V525.644ZM417 491.524V472.004C417.001 471.685 417.066 471.37 417.189 471.076C417.312 470.782 417.493 470.516 417.719 470.292C417.946 470.068 418.215 469.891 418.51 469.771C418.805 469.651 419.121 469.591 419.44 469.594H458.8C459.442 469.594 460.058 469.847 460.515 470.298C460.972 470.749 461.232 471.362 461.24 472.004V491.524C461.237 492.17 460.979 492.789 460.522 493.246C460.065 493.703 459.446 493.961 458.8 493.964H419.43C419.11 493.964 418.793 493.901 418.498 493.778C418.202 493.655 417.934 493.475 417.708 493.248C417.482 493.022 417.304 492.753 417.182 492.457C417.061 492.161 416.999 491.844 417 491.524ZM488.42 525.644C488.421 525.961 488.36 526.275 488.239 526.569C488.119 526.863 487.942 527.129 487.718 527.354C487.494 527.579 487.228 527.758 486.935 527.879C486.642 528.001 486.327 528.064 486.01 528.064H446.61C446.293 528.064 445.979 528.001 445.685 527.879C445.392 527.758 445.126 527.579 444.902 527.354C444.678 527.129 444.501 526.863 444.381 526.569C444.26 526.275 444.199 525.961 444.2 525.644V506.104C444.2 505.465 444.454 504.852 444.906 504.4C445.358 503.948 445.971 503.694 446.61 503.694H486C486.639 503.694 487.252 503.948 487.704 504.4C488.156 504.852 488.41 505.465 488.41 506.104L488.42 525.644ZM513.14 491.524C513.141 491.844 513.079 492.162 512.957 492.459C512.835 492.756 512.655 493.025 512.428 493.252C512.201 493.479 511.932 493.658 511.635 493.781C511.339 493.903 511.021 493.965 510.7 493.964H471.34C471.021 493.962 470.705 493.898 470.411 493.775C470.117 493.652 469.849 493.471 469.625 493.245C469.4 493.018 469.222 492.75 469.101 492.454C468.98 492.159 468.919 491.843 468.92 491.524V472.004C468.92 471.686 468.983 471.372 469.104 471.079C469.226 470.786 469.405 470.52 469.629 470.296C469.854 470.072 470.121 469.895 470.415 469.774C470.708 469.654 471.023 469.592 471.34 469.594H510.69C511.009 469.591 511.325 469.651 511.62 469.771C511.915 469.891 512.184 470.068 512.411 470.292C512.637 470.516 512.818 470.782 512.941 471.076C513.065 471.37 513.129 471.685 513.13 472.004L513.14 491.524ZM565.05 491.524C565.053 491.842 564.992 492.158 564.873 492.454C564.753 492.749 564.576 493.018 564.352 493.244C564.128 493.471 563.861 493.651 563.568 493.775C563.274 493.898 562.959 493.962 562.64 493.964H523.27C522.949 493.965 522.631 493.903 522.335 493.781C522.038 493.658 521.769 493.479 521.542 493.252C521.315 493.025 521.135 492.756 521.013 492.459C520.891 492.162 520.829 491.844 520.83 491.524V472.004C520.831 471.685 520.896 471.37 521.019 471.076C521.142 470.782 521.323 470.516 521.549 470.292C521.776 470.068 522.045 469.891 522.34 469.771C522.635 469.651 522.951 469.591 523.27 469.594H562.63C563.269 469.594 563.882 469.848 564.334 470.3C564.786 470.752 565.04 471.364 565.04 472.004L565.05 491.524ZM601.49 418.234C601.498 421.259 600.909 424.256 599.757 427.054C598.604 429.851 596.911 432.394 594.775 434.536C592.638 436.678 590.1 438.378 587.306 439.537C584.511 440.697 581.515 441.294 578.49 441.294H386.33C380.215 441.291 374.351 438.861 370.027 434.537C365.703 430.213 363.273 424.349 363.27 418.234V336.924C363.27 330.808 365.7 324.942 370.024 320.618C374.349 316.293 380.214 313.864 386.33 313.864H578.45C581.476 313.864 584.471 314.461 587.266 315.62C590.06 316.78 592.598 318.479 594.735 320.621C596.871 322.764 598.564 325.306 599.717 328.104C600.869 330.901 601.458 333.898 601.45 336.924L601.49 418.234ZM598.12 286.934C597.062 288.006 595.8 288.856 594.409 289.435C593.019 290.013 591.526 290.309 590.02 290.304H376.55C373.509 290.301 370.593 289.092 368.442 286.941C366.292 284.791 365.083 281.875 365.08 278.834C365.091 275.795 366.302 272.884 368.451 270.735C370.6 268.586 373.511 267.374 376.55 267.364H590C591.507 267.362 592.999 267.658 594.391 268.234C595.783 268.81 597.048 269.655 598.113 270.72C599.179 271.786 600.024 273.051 600.6 274.443C601.176 275.835 601.471 277.327 601.47 278.834C601.476 280.339 601.182 281.831 600.605 283.222C600.029 284.613 599.18 285.875 598.11 286.934H598.12Z" stroke="#CCDDE2" stroke-width="3.7" stroke-miterlimit="10"/>
<path d="M406.85 493.964H367.49C367.171 493.963 366.856 493.899 366.562 493.775C366.269 493.652 366.002 493.471 365.778 493.245C365.554 493.018 365.377 492.749 365.257 492.454C365.138 492.159 365.077 491.843 365.08 491.524V472.004C365.08 471.365 365.334 470.752 365.786 470.3C366.238 469.848 366.851 469.594 367.49 469.594H406.85C407.169 469.591 407.485 469.652 407.78 469.772C408.075 469.891 408.344 470.068 408.571 470.292C408.797 470.516 408.977 470.783 409.101 471.076C409.224 471.37 409.289 471.685 409.29 472.004V491.524C409.291 491.845 409.229 492.163 409.107 492.459C408.985 492.756 408.805 493.026 408.578 493.252C408.351 493.479 408.082 493.659 407.785 493.781C407.489 493.903 407.171 493.965 406.85 493.964Z" stroke="#CCDDE2" stroke-width="3.7" stroke-miterlimit="10"/>
<path d="M394.88 503.696H434.24C434.882 503.696 435.498 503.948 435.955 504.4C436.412 504.851 436.672 505.464 436.68 506.106V525.646C436.675 526.289 436.415 526.905 435.958 527.358C435.501 527.811 434.884 528.066 434.24 528.066H394.88C394.236 528.066 393.619 527.811 393.162 527.358C392.705 526.905 392.445 526.289 392.44 525.646V506.106C392.448 505.464 392.708 504.851 393.165 504.4C393.622 503.948 394.238 503.696 394.88 503.696Z" stroke="#CCDDE2" stroke-width="3.7" stroke-miterlimit="10"/>
<path d="M461.23 472.004V491.524C461.227 492.17 460.969 492.789 460.512 493.246C460.055 493.704 459.436 493.961 458.79 493.964H419.43C419.109 493.965 418.791 493.903 418.495 493.781C418.198 493.659 417.929 493.479 417.702 493.252C417.475 493.026 417.295 492.756 417.173 492.459C417.051 492.163 416.989 491.845 416.99 491.524V472.004C416.991 471.685 417.056 471.37 417.179 471.076C417.302 470.783 417.483 470.516 417.709 470.292C417.936 470.068 418.205 469.891 418.5 469.772C418.795 469.652 419.111 469.591 419.43 469.594H458.79C459.432 469.594 460.048 469.847 460.505 470.298C460.962 470.749 461.222 471.362 461.23 472.004Z" stroke="#CCDDE2" stroke-width="3.7" stroke-miterlimit="10"/>
<path d="M486 503.696H446.61C445.279 503.696 444.2 504.775 444.2 506.106V525.656C444.2 526.987 445.279 528.066 446.61 528.066H486C487.331 528.066 488.41 526.987 488.41 525.656V506.106C488.41 504.775 487.331 503.696 486 503.696Z" stroke="#CCDDE2" stroke-width="3.7" stroke-miterlimit="10"/>
<path d="M471.34 493.964C471.021 493.963 470.705 493.899 470.411 493.775C470.116 493.652 469.849 493.472 469.625 493.245C469.4 493.019 469.222 492.75 469.101 492.455C468.98 492.159 468.919 491.843 468.92 491.524V472.004C468.92 471.687 468.983 471.373 469.104 471.079C469.226 470.786 469.405 470.52 469.629 470.296C469.854 470.072 470.121 469.895 470.415 469.775C470.708 469.654 471.023 469.593 471.34 469.594H510.69C511.009 469.591 511.325 469.652 511.62 469.772C511.915 469.891 512.184 470.068 512.411 470.292C512.637 470.516 512.818 470.783 512.941 471.076C513.064 471.37 513.129 471.685 513.13 472.004V491.524C513.131 491.845 513.069 492.163 512.947 492.459C512.825 492.756 512.645 493.026 512.418 493.252C512.191 493.479 511.922 493.659 511.625 493.781C511.329 493.903 511.011 493.965 510.69 493.964H471.34Z" stroke="#CCDDE2" stroke-width="3.7" stroke-miterlimit="10"/>
<path d="M523.27 493.964C522.949 493.965 522.631 493.903 522.335 493.781C522.038 493.659 521.769 493.479 521.542 493.252C521.315 493.026 521.135 492.756 521.013 492.459C520.891 492.163 520.829 491.845 520.83 491.524V472.004C520.831 471.685 520.896 471.37 521.019 471.076C521.143 470.783 521.323 470.516 521.549 470.292C521.776 470.068 522.045 469.891 522.34 469.772C522.635 469.652 522.951 469.591 523.27 469.594H562.63C563.269 469.594 563.882 469.848 564.334 470.3C564.786 470.752 565.04 471.365 565.04 472.004V491.524C565.043 491.843 564.982 492.159 564.863 492.454C564.743 492.749 564.566 493.018 564.342 493.245C564.118 493.471 563.852 493.652 563.558 493.775C563.264 493.899 562.949 493.963 562.63 493.964H523.27Z" stroke="#CCDDE2" stroke-width="3.7" stroke-miterlimit="10"/>
<path d="M582.24 579.446V731.776H384.32V579.446C384.336 573.34 386.772 567.49 391.095 563.178C395.418 558.867 401.275 556.446 407.38 556.446H559.18C565.286 556.443 571.144 558.863 575.468 563.176C579.791 567.488 582.227 573.339 582.24 579.446Z" stroke="#CCDDE2" stroke-width="3.7" stroke-miterlimit="10"/>
<path d="M365.08 278.834C365.091 275.795 366.302 272.883 368.451 270.735C370.6 268.586 373.511 267.374 376.55 267.364H590C591.507 267.362 592.999 267.658 594.391 268.234C595.783 268.81 597.048 269.655 598.114 270.72C599.179 271.785 600.024 273.05 600.6 274.443C601.176 275.835 601.471 277.327 601.47 278.834C601.46 281.872 600.248 284.784 598.099 286.932C595.95 289.081 593.039 290.293 590 290.304H376.55C373.509 290.301 370.593 289.092 368.443 286.941C366.292 284.791 365.083 281.875 365.08 278.834Z" stroke="#CCDDE2" stroke-width="3.7" stroke-miterlimit="10"/>
<path d="M470.88 348.295V406.965C470.883 409.097 470.465 411.209 469.651 413.18C468.837 415.15 467.643 416.942 466.137 418.451C464.631 419.96 462.842 421.157 460.873 421.975C458.903 422.792 456.792 423.214 454.66 423.215H397.77C393.465 423.21 389.338 421.495 386.296 418.448C383.255 415.401 381.547 411.27 381.55 406.965V348.295C381.549 346.164 381.967 344.053 382.782 342.083C383.596 340.114 384.79 338.324 386.297 336.816C387.803 335.308 389.591 334.111 391.56 333.294C393.528 332.477 395.639 332.056 397.77 332.055H454.66C456.792 332.055 458.903 332.475 460.872 333.292C462.841 334.108 464.63 335.304 466.136 336.813C467.643 338.321 468.837 340.111 469.651 342.082C470.465 344.052 470.883 346.163 470.88 348.295Z" stroke="#CCDDE2" stroke-width="3.7" stroke-miterlimit="10"/>
<path d="M582.59 348.223V407.043C582.593 409.175 582.175 411.287 581.361 413.258C580.548 415.228 579.353 417.02 577.847 418.529C576.341 420.038 574.552 421.235 572.583 422.053C570.613 422.87 568.502 423.292 566.37 423.293H509.37C507.237 423.292 505.126 422.87 503.156 422.053C501.186 421.236 499.397 420.038 497.89 418.529C496.383 417.02 495.187 415.229 494.373 413.258C493.558 411.288 493.139 409.176 493.14 407.043V348.223C493.139 346.09 493.558 343.978 494.373 342.007C495.187 340.037 496.383 338.246 497.89 336.737C499.397 335.228 501.186 334.03 503.156 333.213C505.126 332.396 507.237 331.974 509.37 331.973H566.37C568.502 331.974 570.613 332.396 572.583 333.213C574.552 334.031 576.341 335.228 577.847 336.737C579.353 338.246 580.548 340.037 581.361 342.008C582.175 343.979 582.593 346.091 582.59 348.223Z" stroke="#CCDDE2" stroke-width="3.7" stroke-miterlimit="10"/>
<path d="M578.45 313.864H386.33C380.214 313.864 374.349 316.293 370.024 320.618C365.7 324.942 363.27 330.808 363.27 336.924V418.234C363.273 424.349 365.703 430.212 370.027 434.536C374.351 438.86 380.215 441.291 386.33 441.294H578.45C581.476 441.294 584.471 440.697 587.266 439.537C590.06 438.377 592.598 436.678 594.735 434.536C596.871 432.394 598.564 429.851 599.717 427.054C600.869 424.256 601.458 421.259 601.45 418.234V336.924C601.458 333.898 600.869 330.901 599.717 328.103C598.564 325.306 596.871 322.763 594.735 320.621C592.598 318.479 590.06 316.78 587.266 315.62C584.471 314.46 581.476 313.864 578.45 313.864ZM470.88 406.964C470.883 409.096 470.465 411.208 469.651 413.178C468.837 415.149 467.643 416.94 466.137 418.449C464.631 419.958 462.842 421.156 460.873 421.973C458.903 422.791 456.792 423.212 454.66 423.214H397.77C393.465 423.208 389.338 421.493 386.296 418.446C383.254 415.399 381.547 411.269 381.55 406.964V348.294C381.549 346.162 381.967 344.051 382.782 342.082C383.596 340.112 384.79 338.322 386.297 336.814C387.803 335.306 389.591 334.11 391.56 333.293C393.528 332.476 395.639 332.055 397.77 332.054H454.66C456.792 332.054 458.903 332.474 460.872 333.29C462.841 334.106 464.63 335.303 466.136 336.811C467.643 338.32 468.837 340.11 469.651 342.08C470.465 344.05 470.883 346.162 470.88 348.294V406.964ZM582.59 407.044C582.593 409.176 582.175 411.288 581.361 413.258C580.547 415.229 579.353 417.02 577.847 418.529C576.341 420.038 574.552 421.236 572.583 422.053C570.613 422.871 568.502 423.292 566.37 423.294H509.37C507.237 423.292 505.126 422.871 503.156 422.053C501.186 421.236 499.397 420.039 497.89 418.53C496.382 417.021 495.187 415.23 494.372 413.259C493.557 411.288 493.139 409.176 493.14 407.044V348.224C493.139 346.091 493.557 343.979 494.372 342.008C495.187 340.037 496.382 338.246 497.89 336.737C499.397 335.228 501.186 334.031 503.156 333.214C505.126 332.396 507.237 331.975 509.37 331.974H566.37C568.502 331.975 570.613 332.396 572.583 333.214C574.552 334.031 576.341 335.229 577.847 336.738C579.353 338.247 580.547 340.038 581.361 342.009C582.175 343.98 582.593 346.091 582.59 348.224V407.044Z" stroke="#CCDDE2" stroke-width="3.7" stroke-miterlimit="10"/>
<path d="M470.88 348.295V406.965C470.883 409.097 470.465 411.209 469.651 413.18C468.837 415.15 467.643 416.942 466.137 418.451C464.631 419.96 462.842 421.157 460.873 421.975C458.903 422.792 456.792 423.214 454.66 423.215H397.77C393.465 423.21 389.338 421.495 386.296 418.448C383.255 415.401 381.547 411.27 381.55 406.965V348.295C381.549 346.164 381.967 344.053 382.782 342.083C383.596 340.114 384.79 338.324 386.297 336.816C387.803 335.308 389.591 334.111 391.56 333.294C393.528 332.477 395.639 332.056 397.77 332.055H454.66C456.792 332.055 458.903 332.475 460.872 333.292C462.841 334.108 464.63 335.304 466.136 336.813C467.643 338.321 468.837 340.111 469.651 342.082C470.465 344.052 470.883 346.163 470.88 348.295Z" stroke="#CCDDE2" stroke-width="3.7" stroke-miterlimit="10"/>
<path d="M582.59 348.223V407.043C582.593 409.175 582.175 411.287 581.361 413.258C580.548 415.228 579.353 417.02 577.847 418.529C576.341 420.038 574.552 421.235 572.583 422.053C570.613 422.87 568.502 423.292 566.37 423.293H509.37C507.237 423.292 505.126 422.87 503.156 422.053C501.186 421.236 499.397 420.038 497.89 418.529C496.383 417.02 495.187 415.229 494.373 413.258C493.558 411.288 493.139 409.176 493.14 407.043V348.223C493.139 346.09 493.558 343.978 494.373 342.007C495.187 340.037 496.383 338.246 497.89 336.737C499.397 335.228 501.186 334.03 503.156 333.213C505.126 332.396 507.237 331.974 509.37 331.973H566.37C568.502 331.974 570.613 332.396 572.583 333.213C574.552 334.031 576.341 335.228 577.847 336.737C579.353 338.246 580.548 340.037 581.361 342.008C582.175 343.979 582.593 346.091 582.59 348.223Z" stroke="#CCDDE2" stroke-width="3.7" stroke-miterlimit="10"/>
<path d="M582.59 348.223V407.043C582.593 409.175 582.175 411.287 581.361 413.258C580.548 415.228 579.353 417.02 577.847 418.529C576.341 420.038 574.552 421.235 572.583 422.053C570.613 422.87 568.502 423.292 566.37 423.293H509.37C507.237 423.292 505.126 422.87 503.156 422.053C501.186 421.236 499.397 420.038 497.89 418.529C496.383 417.02 495.187 415.229 494.373 413.258C493.558 411.288 493.139 409.176 493.14 407.043V348.223C493.139 346.09 493.558 343.978 494.373 342.007C495.187 340.037 496.383 338.246 497.89 336.737C499.397 335.228 501.186 334.03 503.156 333.213C505.126 332.396 507.237 331.974 509.37 331.973H566.37C568.502 331.974 570.613 332.396 572.583 333.213C574.552 334.031 576.341 335.228 577.847 336.737C579.353 338.246 580.548 340.037 581.361 342.008C582.175 343.979 582.593 346.091 582.59 348.223Z" stroke="#CCDDE2" stroke-width="3.7" stroke-miterlimit="10"/>
<path d="M470.88 348.295V406.965C470.883 409.097 470.465 411.209 469.651 413.18C468.837 415.15 467.643 416.942 466.137 418.451C464.631 419.96 462.842 421.157 460.873 421.975C458.903 422.792 456.792 423.214 454.66 423.215H397.77C393.465 423.21 389.338 421.495 386.296 418.448C383.255 415.401 381.547 411.27 381.55 406.965V348.295C381.549 346.164 381.967 344.053 382.782 342.083C383.596 340.114 384.79 338.324 386.297 336.816C387.803 335.308 389.591 334.111 391.56 333.294C393.528 332.477 395.639 332.056 397.77 332.055H454.66C456.792 332.055 458.903 332.475 460.872 333.292C462.841 334.108 464.63 335.304 466.136 336.813C467.643 338.321 468.837 340.111 469.651 342.082C470.465 344.052 470.883 346.163 470.88 348.295Z" stroke="#CCDDE2" stroke-width="3.7" stroke-miterlimit="10"/>
<path d="M582.24 579.446V731.776H384.32V579.446C384.336 573.34 386.772 567.49 391.095 563.178C395.418 558.867 401.275 556.446 407.38 556.446H559.18C565.286 556.443 571.144 558.863 575.468 563.176C579.791 567.488 582.227 573.339 582.24 579.446Z" stroke="#CCDDE2" stroke-width="3.7" stroke-miterlimit="10"/>
<path d="M409.29 472.004V491.524C409.291 491.845 409.229 492.163 409.107 492.459C408.985 492.756 408.805 493.026 408.578 493.252C408.351 493.479 408.082 493.659 407.785 493.781C407.489 493.903 407.171 493.965 406.85 493.964H367.49C367.171 493.963 366.856 493.899 366.562 493.775C366.269 493.652 366.002 493.471 365.778 493.245C365.554 493.018 365.377 492.749 365.257 492.454C365.138 492.159 365.077 491.843 365.08 491.524V472.004C365.08 471.365 365.334 470.752 365.786 470.3C366.238 469.848 366.851 469.594 367.49 469.594H406.85C407.169 469.591 407.485 469.652 407.78 469.772C408.075 469.891 408.344 470.068 408.571 470.292C408.797 470.516 408.977 470.783 409.101 471.076C409.224 471.37 409.289 471.685 409.29 472.004Z" stroke="#CCDDE2" stroke-width="3.7" stroke-miterlimit="10"/>
<path d="M461.23 472.004V491.524C461.227 492.17 460.969 492.789 460.512 493.246C460.055 493.704 459.436 493.961 458.79 493.964H419.43C419.109 493.965 418.791 493.903 418.495 493.781C418.198 493.659 417.929 493.479 417.702 493.252C417.475 493.026 417.295 492.756 417.173 492.459C417.051 492.163 416.989 491.845 416.99 491.524V472.004C416.991 471.685 417.056 471.37 417.179 471.076C417.302 470.783 417.483 470.516 417.709 470.292C417.936 470.068 418.205 469.891 418.5 469.772C418.795 469.652 419.111 469.591 419.43 469.594H458.79C459.432 469.594 460.048 469.847 460.505 470.298C460.962 470.749 461.222 471.362 461.23 472.004Z" stroke="#CCDDE2" stroke-width="3.7" stroke-miterlimit="10"/>
<path d="M513.13 472.004V491.524C513.131 491.845 513.069 492.163 512.947 492.459C512.825 492.756 512.645 493.026 512.418 493.252C512.191 493.479 511.922 493.659 511.625 493.781C511.329 493.903 511.011 493.965 510.69 493.964H471.34C471.021 493.963 470.705 493.899 470.411 493.775C470.116 493.652 469.849 493.472 469.625 493.245C469.4 493.019 469.222 492.75 469.101 492.455C468.98 492.159 468.919 491.843 468.92 491.524V472.004C468.92 471.687 468.983 471.373 469.104 471.079C469.226 470.786 469.405 470.52 469.629 470.296C469.854 470.072 470.121 469.895 470.415 469.775C470.708 469.654 471.023 469.593 471.34 469.594H510.69C511.009 469.591 511.325 469.652 511.62 469.772C511.915 469.891 512.184 470.068 512.411 470.292C512.637 470.516 512.818 470.783 512.941 471.076C513.064 471.37 513.129 471.685 513.13 472.004Z" stroke="#CCDDE2" stroke-width="3.7" stroke-miterlimit="10"/>
<path d="M565 472.004V491.524C565.003 491.843 564.942 492.159 564.823 492.454C564.703 492.749 564.526 493.018 564.302 493.245C564.078 493.471 563.811 493.652 563.518 493.775C563.224 493.899 562.909 493.963 562.59 493.964H523.27C522.949 493.965 522.631 493.903 522.335 493.781C522.038 493.659 521.769 493.479 521.542 493.252C521.315 493.026 521.135 492.756 521.013 492.459C520.891 492.163 520.829 491.845 520.83 491.524V472.004C520.831 471.685 520.896 471.37 521.019 471.076C521.143 470.783 521.323 470.516 521.549 470.292C521.776 470.068 522.045 469.891 522.34 469.772C522.635 469.652 522.951 469.591 523.27 469.594H562.63C563.262 469.605 563.865 469.863 564.308 470.314C564.752 470.765 565 471.372 565 472.004Z" stroke="#CCDDE2" stroke-width="3.7" stroke-miterlimit="10"/>
<path d="M436.68 506.106V525.646C436.675 526.289 436.415 526.905 435.958 527.358C435.501 527.811 434.884 528.066 434.24 528.066H394.88C394.236 528.066 393.619 527.811 393.162 527.358C392.705 526.905 392.445 526.289 392.44 525.646V506.106C392.448 505.464 392.708 504.851 393.165 504.4C393.622 503.948 394.238 503.696 394.88 503.696H434.24C434.882 503.696 435.498 503.948 435.955 504.4C436.412 504.851 436.672 505.464 436.68 506.106Z" stroke="#CCDDE2" stroke-width="3.7" stroke-miterlimit="10"/>
<path d="M486 503.696H446.61C445.279 503.696 444.2 504.775 444.2 506.106V525.656C444.2 526.987 445.279 528.066 446.61 528.066H486C487.331 528.066 488.41 526.987 488.41 525.656V506.106C488.41 504.775 487.331 503.696 486 503.696Z" stroke="#CCDDE2" stroke-width="3.7" stroke-miterlimit="10"/>
<path d="M601.48 278.834C601.47 281.874 600.256 284.787 598.105 286.936C595.955 289.085 593.041 290.296 590 290.304H376.55C373.509 290.301 370.593 289.092 368.443 286.941C366.292 284.791 365.083 281.875 365.08 278.834C365.091 275.795 366.302 272.883 368.451 270.735C370.6 268.586 373.511 267.374 376.55 267.364H590C591.508 267.361 593.001 267.656 594.394 268.231C595.787 268.806 597.054 269.651 598.12 270.717C599.186 271.782 600.032 273.047 600.609 274.44C601.185 275.833 601.481 277.326 601.48 278.834Z" stroke="#CCDDE2" stroke-width="3.7" stroke-miterlimit="10"/>
<path d="M558.56 574.063H407.41C403.826 574.063 400.92 576.968 400.92 580.553V580.803C400.92 584.387 403.826 587.293 407.41 587.293H558.56C562.144 587.293 565.05 584.387 565.05 580.803V580.553C565.05 576.968 562.144 574.063 558.56 574.063Z" stroke="#CCDDE2" stroke-width="3.7" stroke-miterlimit="10"/>
<path d="M558.56 601.364H407.41C403.826 601.364 400.92 604.269 400.92 607.854V608.104C400.92 611.688 403.826 614.594 407.41 614.594H558.56C562.144 614.594 565.05 611.688 565.05 608.104V607.854C565.05 604.269 562.144 601.364 558.56 601.364Z" stroke="#CCDDE2" stroke-width="3.7" stroke-miterlimit="10"/>
<path d="M558.56 628.664H407.41C403.826 628.664 400.92 631.57 400.92 635.154V635.404C400.92 638.989 403.826 641.894 407.41 641.894H558.56C562.144 641.894 565.05 638.989 565.05 635.404V635.154C565.05 631.57 562.144 628.664 558.56 628.664Z" stroke="#CCDDE2" stroke-width="3.7" stroke-miterlimit="10"/>
<path d="M558.56 655.973H407.41C403.826 655.973 400.92 658.879 400.92 662.463V662.713C400.92 666.297 403.826 669.203 407.41 669.203H558.56C562.144 669.203 565.05 666.297 565.05 662.713V662.463C565.05 658.879 562.144 655.973 558.56 655.973Z" stroke="#CCDDE2" stroke-width="3.7" stroke-miterlimit="10"/>
<path d="M558.56 683.274H407.41C403.826 683.274 400.92 686.179 400.92 689.764V690.014C400.92 693.598 403.826 696.504 407.41 696.504H558.56C562.144 696.504 565.05 693.598 565.05 690.014V689.764C565.05 686.179 562.144 683.274 558.56 683.274Z" stroke="#CCDDE2" stroke-width="3.7" stroke-miterlimit="10"/>
<path d="M303.37 190.594H689.45C695.502 190.594 701.307 192.998 705.586 197.278C709.866 201.557 712.27 207.362 712.27 213.414V235.414H280.55V213.414C280.55 207.362 282.954 201.557 287.234 197.278C291.513 192.998 297.318 190.594 303.37 190.594Z" stroke="#CCDDE2" stroke-width="3.7" stroke-miterlimit="10"/>
<path d="M671.06 546.903H712.57V584.673H751.96V628.053H790.32V662.023H828.07V691.913H906V731.753H671.06V546.903Z" stroke="#CCDDE2" stroke-width="3.7" stroke-miterlimit="10"/>
<path d="M678.89 463.274H712.84H713.87L752.02 501.434L790.48 539.884L828.08 577.484L845.86 595.264" stroke="#CCDDE2" stroke-width="3.7" stroke-miterlimit="10"/>
<path d="M712.84 584.674V463.274" stroke="#CCDDE2" stroke-width="3.7" stroke-miterlimit="10"/>
<path d="M828.08 662.035V577.485" stroke="#CCDDE2" stroke-width="3.7" stroke-miterlimit="10"/>
<path d="M752.02 601.672V501.422" stroke="#CCDDE2" stroke-width="3.7" stroke-miterlimit="10"/>
<path d="M790.32 539.883V631.373" stroke="#CCDDE2" stroke-width="3.7" stroke-miterlimit="10"/>
<path d="M331.13 648.723V674.353" stroke="#CCDDE2" stroke-width="3.7" stroke-miterlimit="10"/>
<path d="M293.15 674.355V658.595C294.76 663.215 299.09 667.245 304.67 669.235C302.86 656.035 299.32 635.235 293.15 616.625" stroke="#CCDDE2" stroke-width="3.7" stroke-miterlimit="10"/>
<path d="M331.13 597.394V377.594H293.15V587.514" stroke="#CCDDE2" stroke-width="3.7" stroke-miterlimit="10"/>
<path d="M293.15 658.614V674.354" stroke="#CCDDE2" stroke-width="3.7" stroke-miterlimit="10"/>
<path d="M293.15 587.514V377.594H56.73V731.774H290.08H293.15" stroke="#CCDDE2" stroke-width="3.7" stroke-miterlimit="10"/>
<path d="M128.64 429.465V567.855C128.64 580.342 138.763 590.465 151.25 590.465H204.25C216.737 590.465 226.86 580.342 226.86 567.855V429.465C226.86 416.978 216.737 406.855 204.25 406.855H151.25C138.763 406.855 128.64 416.978 128.64 429.465Z" stroke="#CCDDE2" stroke-width="3.7" stroke-miterlimit="10"/>
<path d="M142.61 437.345V474.465C142.61 483.263 149.742 490.395 158.54 490.395H197.06C205.858 490.395 212.99 483.263 212.99 474.465V437.345C212.99 428.547 205.858 421.415 197.06 421.415H158.54C149.742 421.415 142.61 428.547 142.61 437.345Z" stroke="#CCDDE2" stroke-width="3.7" stroke-miterlimit="10"/>
<path d="M142.67 523.435V560.445C142.67 569.243 149.802 576.375 158.6 576.375H197C205.798 576.375 212.93 569.243 212.93 560.445V523.435C212.93 514.637 205.798 507.505 197 507.505H158.6C149.802 507.505 142.67 514.637 142.67 523.435Z" stroke="#CCDDE2" stroke-width="3.7" stroke-miterlimit="10"/>
<path d="M132.35 611.414H92.91C91.59 611.414 90.52 612.484 90.52 613.804V633.404C90.52 634.724 91.59 635.794 92.91 635.794H132.35C133.67 635.794 134.74 634.724 134.74 633.404V613.804C134.74 612.484 133.67 611.414 132.35 611.414Z" stroke="#CCDDE2" stroke-width="3.7" stroke-miterlimit="10"/>
<path d="M184.27 611.414H144.83C143.51 611.414 142.44 612.484 142.44 613.804V633.404C142.44 634.724 143.51 635.794 144.83 635.794H184.27C185.59 635.794 186.66 634.724 186.66 633.404V613.804C186.66 612.484 185.59 611.414 184.27 611.414Z" stroke="#CCDDE2" stroke-width="3.7" stroke-miterlimit="10"/>
<path d="M236.19 611.414H196.75C195.43 611.414 194.36 612.484 194.36 613.804V633.404C194.36 634.724 195.43 635.794 196.75 635.794H236.19C237.51 635.794 238.58 634.724 238.58 633.404V613.804C238.58 612.484 237.51 611.414 236.19 611.414Z" stroke="#CCDDE2" stroke-width="3.7" stroke-miterlimit="10"/>
<path d="M159.73 645.524H120.29C118.97 645.524 117.9 646.594 117.9 647.914V667.514C117.9 668.834 118.97 669.904 120.29 669.904H159.73C161.05 669.904 162.12 668.834 162.12 667.514V647.914C162.12 646.594 161.05 645.524 159.73 645.524Z" stroke="#CCDDE2" stroke-width="3.7" stroke-miterlimit="10"/>
<path d="M211.47 645.524H172.03C170.71 645.524 169.64 646.594 169.64 647.914V667.514C169.64 668.834 170.71 669.904 172.03 669.904H211.47C212.79 669.904 213.86 668.834 213.86 667.514V647.914C213.86 646.594 212.79 645.524 211.47 645.524Z" stroke="#CCDDE2" stroke-width="3.7" stroke-miterlimit="10"/>
<path d="M29.26 332.422H331.26V377.212H6V355.692C6.0026 349.523 8.4538 343.607 12.815 339.244C17.1762 334.881 23.091 332.427 29.26 332.422Z" stroke="#CCDDE2" stroke-width="3.7" stroke-miterlimit="10"/>
<path d="M312.5 626.656C314.57 624.976 316.97 623.426 318.63 621.576C323.29 616.366 321.5 609.706 324.49 603.986C328.13 596.986 339.57 592.136 350.82 592.776C349.755 596.067 349.024 599.458 348.64 602.896C348.31 605.956 349.11 609.356 348.23 612.326C346.8 617.086 339.16 619.976 338.23 624.866C337.41 629.186 342.47 633.226 341.63 637.626C340.74 642.346 333.49 644.956 330.82 649.126C328.64 652.526 329.67 656.406 328.54 660.016C327.17 664.376 322.43 668.226 316.22 670.016L315.6 670.196C313.319 668.239 311.362 665.934 309.8 663.366" stroke="#CCDDE2" stroke-width="3.7" stroke-miterlimit="10"/>
<path d="M344 598.254C327.23 615.364 319.34 651.434 316.27 670.034C316.02 671.604 315.79 673.034 315.6 674.344" stroke="#CCDDE2" stroke-width="3.7" stroke-miterlimit="10"/>
<path d="M345.5 684.824L337.78 727.964C337.566 729.175 336.933 730.271 335.991 731.061C335.049 731.851 333.859 732.284 332.63 732.284H292.3C291.059 732.284 289.858 731.842 288.913 731.038C287.968 730.234 287.339 729.119 287.14 727.894L280 684.824H345.5Z" stroke="#CCDDE2" stroke-width="3.7" stroke-miterlimit="10"/>
<path d="M352.83 680.014C352.722 681.325 352.125 682.547 351.158 683.438C350.192 684.329 348.925 684.824 347.61 684.824H278C276.697 684.825 275.441 684.339 274.477 683.463C273.514 682.586 272.912 681.381 272.79 680.084C272.72 679.358 272.803 678.625 273.033 677.932C273.263 677.24 273.636 676.603 274.126 676.062C274.617 675.522 275.214 675.09 275.882 674.794C276.549 674.498 277.27 674.345 278 674.344H347.57C348.298 674.339 349.018 674.485 349.686 674.774C350.354 675.062 350.954 675.487 351.449 676.02C351.944 676.554 352.322 677.184 352.56 677.872C352.798 678.559 352.89 679.289 352.83 680.014Z" stroke="#CCDDE2" stroke-width="3.7" stroke-miterlimit="10"/>
<path d="M293.15 658.595C293.032 658.267 292.932 657.934 292.85 657.595C291.74 653.415 292.73 648.885 290.64 644.965C288.07 640.135 281.13 637.115 280.25 631.635C279.47 626.555 284.33 621.855 283.52 616.845C282.64 611.195 275.3 607.845 273.91 602.315C273.08 598.895 273.84 594.945 273.54 591.395C273.167 587.435 272.458 583.515 271.42 579.675C279.72 579.105 288.12 582.295 293.15 587.475C294.658 588.971 295.869 590.739 296.72 592.685C299.59 599.295 297.88 607.015 302.36 613.055C304.8 616.325 308.85 618.765 310.93 622.185C311.626 623.302 312.113 624.535 312.37 625.825C312.38 625.92 312.397 626.013 312.42 626.105C312.47 626.285 312.49 626.455 312.52 626.605C313.27 631.665 311.34 637.145 311.96 642.355C312.52 646.675 314.86 651.005 313.52 655.225C312.581 658.063 311.334 660.789 309.8 663.355C308.556 665.566 307.026 667.604 305.25 669.415C305.05 669.365 304.87 669.285 304.67 669.215C302.86 656.015 299.32 635.215 293.15 616.605" stroke="#CCDDE2" stroke-width="3.7" stroke-miterlimit="10"/>
<path d="M305.33 674.332C305.15 672.792 304.92 671.112 304.67 669.252C302.86 656.052 299.32 635.252 293.15 616.642C289.26 604.792 284.3 593.782 278.04 586.082" stroke="#CCDDE2" stroke-width="3.7" stroke-miterlimit="10"/>
<path d="M302.36 613.083C302.36 613.083 303.47 595.863 312.76 590.623C322.05 585.383 321.85 614.743 321.85 614.743" stroke="#CCDDE2" stroke-width="3.7" stroke-miterlimit="10"/>
<path d="M312.5 626.654C311.451 620.118 311.94 613.427 313.93 607.114" stroke="#CCDDE2" stroke-width="3.7" stroke-miterlimit="10"/>
<path d="M452.42 304.485C453.71 305.883 454.455 307.698 454.519 309.6C454.583 311.501 453.962 313.363 452.77 314.845L429.66 354.595L428.85 362.595L421.66 434.845L410.24 549.595C410.17 550.325 410.02 551.055 409.89 551.785C409.82 552.365 409.74 552.945 409.64 553.525C409.49 554.275 409.31 554.985 409.14 555.705C408.97 556.425 408.86 556.895 408.68 557.475C408.5 558.055 408.26 558.855 408.01 559.535L407.4 561.245C407.13 561.925 406.85 562.575 406.57 563.245C406.29 563.915 406.04 564.335 405.77 564.885C405.5 565.435 405.14 566.145 404.77 566.745C404.4 567.345 404.16 567.805 403.84 568.305C403.52 568.805 403.11 569.485 402.7 570.065C402.29 570.645 402 571.065 401.65 571.525C400.89 572.525 400.14 573.465 399.31 574.365C398.88 574.865 398.43 575.365 397.98 575.845C397.53 576.325 396.98 576.775 396.52 577.235C396.06 577.695 395.61 578.085 395.13 578.485C394.65 578.885 394.13 579.345 393.58 579.745C393.03 580.145 392.58 580.525 392.07 580.875C391.56 581.225 390.98 581.635 390.43 582.015C389.88 582.395 389.35 582.685 388.8 583.015C388.25 583.345 387.66 583.675 387.09 584.015C386.52 584.355 385.93 584.595 385.33 584.865C384.73 585.135 384.17 585.445 383.57 585.695C382.97 585.945 382.28 586.205 381.63 586.425C380.98 586.645 380.47 586.875 379.89 587.055C378.79 587.405 377.66 587.705 376.52 587.965C375.87 588.115 375.24 588.235 374.59 588.335C373.94 588.435 373.33 588.585 372.68 588.695H372.78L381.7 607.695L390.05 607.775C387.355 608.157 384.628 608.275 381.91 608.125L395.13 636.315C397.253 640.835 398.2 645.819 397.884 650.803C397.567 655.787 395.999 660.61 393.322 664.826C390.646 669.043 386.948 672.515 382.572 674.922C378.196 677.329 373.284 678.592 368.29 678.595H352.29C351.671 678.596 351.058 678.72 350.486 678.958C349.914 679.197 349.395 679.546 348.959 679.985C348.522 680.424 348.177 680.945 347.942 681.519C347.707 682.092 347.587 682.705 347.59 683.325V685.665C353.051 687.516 357.678 691.247 360.644 696.192C363.611 701.137 364.724 706.975 363.786 712.665C362.848 718.355 359.919 723.527 355.523 727.258C351.126 730.989 345.547 733.037 339.78 733.037C334.013 733.037 328.434 730.989 324.037 727.258C319.641 723.527 316.712 718.355 315.774 712.665C314.836 706.975 315.949 701.137 318.916 696.192C321.882 691.247 326.509 687.516 331.97 685.665V683.325C331.971 682.704 331.85 682.089 331.614 681.516C331.377 680.942 331.03 680.42 330.591 679.981C330.153 679.542 329.632 679.193 329.059 678.955C328.485 678.717 327.871 678.595 327.25 678.595H150.7C150.079 678.595 149.465 678.717 148.891 678.955C148.318 679.193 147.797 679.542 147.359 679.981C146.92 680.42 146.573 680.942 146.336 681.516C146.1 682.089 145.979 682.704 145.98 683.325V685.665C151.45 687.516 156.084 691.251 159.056 696.202C162.028 701.153 163.145 706.999 162.206 712.697C161.268 718.394 158.336 723.574 153.934 727.311C149.531 731.048 143.945 733.099 138.17 733.099C132.395 733.099 126.809 731.048 122.406 727.311C118.004 723.574 115.072 718.394 114.134 712.697C113.195 706.999 114.312 701.153 117.284 696.202C120.256 691.251 124.89 687.516 130.36 685.665V683.325C130.36 682.07 129.862 680.867 128.975 679.98C128.088 679.093 126.884 678.595 125.63 678.595H98.19C96.927 678.592 95.694 678.214 94.646 677.511C93.597 676.807 92.781 675.809 92.3 674.641C91.818 673.474 91.693 672.191 91.941 670.952C92.188 669.714 92.797 668.577 93.69 667.685C94.28 667.093 94.981 666.623 95.754 666.304C96.526 665.985 97.354 665.822 98.19 665.825H362.54C365.877 665.821 369.159 664.978 372.083 663.371C375.008 661.765 377.481 659.449 379.275 656.635C381.068 653.821 382.124 650.601 382.345 647.272C382.566 643.942 381.946 640.611 380.54 637.585L357.81 588.535L130 570.115C129.826 570.074 129.648 570.048 129.47 570.035C128.47 569.935 127.47 569.805 126.47 569.635C126.134 569.592 125.8 569.532 125.47 569.455C124.34 569.255 123.26 569.005 122.17 568.725L121.24 568.455C120.24 568.145 119.24 567.825 118.24 567.455L117.46 567.155C116.55 566.805 115.65 566.405 114.77 565.975C114.397 565.819 114.033 565.642 113.68 565.445C112.88 565.045 112.08 564.615 111.3 564.135C104.736 560.278 99.294 554.773 95.513 548.166C91.731 541.558 89.741 534.078 89.74 526.465V427.715C89.742 417.181 93.542 407.001 100.442 399.042C107.343 391.083 116.882 385.879 127.31 384.385L412.66 343.385L440.77 304.455C441.52 303.662 442.424 303.031 443.427 302.601C444.43 302.171 445.51 301.951 446.601 301.953C447.693 301.956 448.772 302.182 449.772 302.618C450.773 303.053 451.674 303.688 452.42 304.485Z" fill="white"/>
<path d="M777.17 641.153C758.72 602.873 720.74 534.543 668.58 493.273L663.5 401.583C667.349 401.393 671.158 400.721 674.84 399.583C679.02 398.903 681.84 397.843 682.84 396.283C683.608 394.985 684.146 393.564 684.43 392.083C685.267 390.257 685.665 388.26 685.59 386.253C685.59 385.253 685.51 384.063 685.49 382.853C685.86 372.773 684.88 358.283 683.7 341.083C682.49 316.283 681.14 292.083 681.11 291.863V291.813C681.11 291.463 681.26 269.733 682.27 245.743C683.57 259.353 689.21 267.873 696.6 273.103C704.6 279.693 715.09 281.483 724.09 281.483C730.67 281.469 737.221 280.605 743.58 278.913C754.29 275.573 763.1 270.243 769.64 262.643C775.64 256.863 780.64 249.493 782.01 240.433C783.257 233.104 782.861 225.59 780.85 218.433C779.083 210.109 774.362 202.706 767.56 197.593C765.961 196.241 764.197 195.099 762.31 194.193C759.14 192.353 755.87 190.573 752.77 188.533C748.586 185.607 744.942 181.976 742 177.803C740.063 174.236 738.882 170.307 738.53 166.263C738.845 159.507 738.751 152.738 738.25 145.993C738.25 144.583 738.1 143.173 737.95 141.793C737.57 136.963 737.22 133.623 737.22 133.623C733.116 123.056 726.106 113.865 717 107.113C716.44 106.663 715.87 106.233 715.31 105.803C707.317 99.9668 698.035 96.1458 688.25 94.6628C687.35 94.5328 686.44 94.4328 685.56 94.3628C682.673 93.8918 679.755 93.6318 676.83 93.5828C673.093 92.0178 669.883 89.4158 667.58 86.0828C665.558 82.4048 664.124 78.4338 663.33 74.3128C662.2 67.5728 662.1 59.4828 661.54 50.1528C661.627 40.7838 659.189 31.5638 654.48 23.4628C654.459 23.3998 654.425 23.3418 654.38 23.2928C652.371 19.9168 649.934 16.8148 647.13 14.0628C639.06 4.50281 627.82 -1.47718 613.84 2.01282C613.71 2.01282 613.58 2.09281 613.43 2.14281C612.85 2.14281 612.28 2.14282 611.7 2.24282C611.684 2.23782 611.666 2.23782 611.65 2.24282C606.179 2.69782 600.877 4.36483 596.13 7.12283C594.382 8.13583 592.732 9.30683 591.2 10.6228C581.95 18.6228 576.64 30.9928 575.2 43.2428C575.13 43.7428 575.1 44.2428 575.08 44.7428C573.46 46.6958 572.501 49.1108 572.34 51.6428C572.182 54.1048 572.741 56.5608 573.949 58.7118C575.158 60.8628 576.965 62.6178 579.15 63.7628V64.3928C579.305 68.7178 580.251 72.9788 581.94 76.9628C584.78 83.7028 589.86 91.3728 598.46 92.6028C598.77 92.6028 599.07 92.6528 599.34 92.7028L605.63 103.923L607.14 110.433L610.64 125.523L611.84 124.843C613.23 124.063 614.61 123.293 616.04 122.533L616.95 124.193C611.576 127.265 606.445 130.741 601.6 134.593C589.23 143.923 574.04 158.183 563.35 177.693C557.06 188.613 552.61 200.483 551.23 213.083C551.222 213.251 551.205 213.417 551.18 213.583C551 214.713 550.85 215.843 550.73 217.003V211.493C550.51 211.493 550.3 211.393 550.08 211.373V211.273C549.309 211.161 548.544 211.008 547.79 210.813L490.15 176.493C487.563 174.173 485.692 171.161 484.76 167.813C483.163 161.358 479.552 155.579 474.45 151.313C470.094 147.922 464.963 145.668 459.52 144.753C459.19 144.673 458.84 144.623 458.52 144.573C458.74 144.091 458.854 143.568 458.856 143.038C458.858 142.508 458.746 141.984 458.53 141.501C458.313 141.017 457.996 140.585 457.599 140.234C457.203 139.883 456.736 139.62 456.23 139.463L413.63 126.013C412.741 125.73 411.778 125.79 410.931 126.18C410.083 126.571 409.413 127.264 409.05 128.123L399.24 151.333C399.04 151.813 398.942 152.329 398.953 152.849C398.964 153.368 399.083 153.88 399.304 154.351C399.524 154.822 399.84 155.241 400.232 155.582C400.624 155.924 401.083 156.18 401.58 156.333L402.69 156.683V156.783L427.87 164.593L428.33 164.743C428.33 165.243 428.33 165.743 428.38 166.243C428.449 168.632 428.7 171.012 429.13 173.363C429.31 174.363 429.53 175.363 429.78 176.363C429.93 176.913 430.06 177.443 430.26 177.973L430.34 178.253C430.49 178.723 430.64 179.253 430.84 179.703C430.889 179.89 430.949 180.073 431.02 180.253C431.036 180.259 431.054 180.259 431.07 180.253C431.694 181.87 432.478 183.421 433.41 184.883C435.606 188.313 438.814 190.976 442.59 192.503C446.16 193.903 449.98 193.633 453.59 195.063C456.369 196.225 458.916 197.878 461.11 199.943L462.47 201.423C461.74 202.513 455.18 212.643 459.91 215.833L459.73 215.913L464.51 218.913L523.16 257.643C523.74 258.093 524.34 258.523 524.92 258.943L520.7 263.593C509.06 267.713 495.32 272.213 484.43 275.333C477.9 276.993 471.31 278.453 464.67 279.633C454.48 281.393 444.09 281.473 433.96 283.203C426.59 284.413 420.35 291.283 418.96 298.973C417.8 305.233 417.52 311.973 424.44 315.193C432.36 318.873 436.31 307.603 441.11 303.603C448.51 297.343 455.87 304.813 463.57 309.063C464.27 313.183 465.48 317.153 466.41 321.203C466.655 322.639 467.212 324.004 468.04 325.203C469.45 327.013 470.93 327.203 472.24 326.533L471.91 326.813C474.43 326.146 476.97 325.48 479.53 324.813C481.93 324.44 484.295 323.868 486.6 323.103C503.78 319.023 522.09 315.223 540.4 310.623H540.47C541.33 310.403 542.21 310.173 543.06 309.973C543.346 309.964 543.631 310.011 543.898 310.112C544.166 310.213 544.41 310.366 544.619 310.562C544.827 310.759 544.994 310.994 545.111 311.255C545.228 311.516 545.292 311.797 545.3 312.083C545.2 313.393 545.07 314.723 544.95 316.083C543.62 321.943 541.43 337.763 538.95 350.533C537.59 356.193 536.18 361.473 534.82 366.153C532.61 371.153 530.45 376.083 531.13 380.153C531.204 381.968 531.907 383.701 533.119 385.055C534.33 386.408 535.974 387.299 537.77 387.573L540.93 388.053C543.1 388.573 546.77 389.203 551.37 389.863C552 394.333 552.68 398.863 553.43 403.263L553.61 404.373C554.14 407.283 554.69 410.253 555.24 413.193V413.273V413.373L555.69 415.783L556.17 418.383L552.52 450.723L551.43 460.593L523.67 705.383L494.47 713.153L472.59 718.993C471.792 719.163 471.033 719.478 470.35 719.923C469.334 720.558 468.498 721.443 467.922 722.494C467.346 723.544 467.049 724.725 467.06 725.923C467.062 727.097 467.365 728.25 467.94 729.273C468.255 729.878 468.652 730.437 469.12 730.933C470.087 731.888 471.309 732.544 472.64 732.823C473.135 732.94 473.642 732.997 474.15 732.993H559.43L566.43 705.403L608.23 540.003L610.42 542.003C610.42 542.003 610.42 542.083 610.5 542.103V542.153L674.6 603.093L675.36 603.763L676.36 604.763L689.71 617.433L690.71 618.363L691.11 618.763C740.96 666.923 742.74 673.213 741.63 673.873H741L718 721.593C717.283 723.092 717.112 724.794 717.515 726.406C717.919 728.018 718.872 729.438 720.21 730.423L721.82 731.603C723.267 732.649 725.055 733.11 726.827 732.895C728.599 732.68 730.225 731.805 731.38 730.443L789.77 662.193C789.77 662.193 785.44 658.203 777.17 641.153ZM474 325.033C474.302 324.666 474.58 324.278 474.83 323.873C474.841 323.999 474.886 324.12 474.96 324.223L474 325.033ZM523.49 262.593C523.82 262.443 524.14 262.313 524.49 262.183L527.94 260.833L528.09 260.903C526.61 261.453 525.07 262.033 523.49 262.593ZM546.9 210.593C543.915 209.658 541.164 208.096 538.83 206.013L535.64 204.103L547.46 210.693C547.26 210.703 547.08 210.703 546.9 210.653V210.593Z" fill="white"/>
<path d="M531.16 261.504L529.42 260.854C529.296 260.788 529.175 260.714 529.06 260.634C519.97 254.754 512.87 246.454 506.8 237.634C500.4 228.324 478.44 218.744 471.34 209.924C466.79 204.344 462.03 197.924 455.06 195.144C451.47 193.734 447.63 194.004 444.06 192.584C440.281 191.066 437.074 188.4 434.89 184.964C433.943 183.499 433.148 181.941 432.52 180.314C432.443 180.128 432.38 179.938 432.33 179.744C432.095 179.179 431.905 178.597 431.76 178.004C431.57 177.464 431.43 176.944 431.29 176.394C431.016 175.407 430.799 174.405 430.64 173.394C430.267 171.133 430.03 168.852 429.93 166.564V166.454C429.85 164.134 429.88 161.854 429.99 159.624V159.564H429.88L419.67 155.974C418.261 155.508 417.004 154.67 416.033 153.549C415.061 152.428 414.41 151.064 414.15 149.604C414.011 148.79 414.038 147.956 414.23 147.154C414.463 146.093 414.925 145.096 415.583 144.233C416.241 143.369 417.079 142.66 418.04 142.154C418.927 141.683 419.902 141.401 420.904 141.326C421.905 141.25 422.912 141.382 423.86 141.714L444.41 149.174L448.63 150.694L448.74 150.754C448.74 150.754 448.74 144.494 454.74 144.624C460.29 144.764 480.4 146.394 486.36 168.384C487.29 171.727 489.161 174.733 491.75 177.044L540.33 206.134C543.633 209.127 547.777 211.03 552.2 211.584V217.754C552.194 217.759 552.188 217.766 552.185 217.774C552.181 217.782 552.18 217.79 552.18 217.799C552.18 217.807 552.181 217.815 552.185 217.823C552.188 217.831 552.194 217.838 552.2 217.844V222.334L556.06 249.384L558.78 268.294C555.231 268.583 551.66 268.455 548.14 267.914L545.83 267.044H545.77L531.16 261.504Z" fill="white"/>
<path d="M551.56 217.433V217.513C550.41 227.643 549.27 239.403 548.37 252.413C541.89 255.413 535.28 258.013 528.78 260.603C528.656 260.537 528.535 260.464 528.42 260.383C524.003 257.482 519.948 254.065 516.34 250.203L461.2 215.983C464.612 214.257 467.652 211.879 470.15 208.983L470.32 208.813C480.71 197.653 489.72 178.813 490.84 176.453L491.08 176.703L539.66 205.793C542.963 208.784 547.108 210.684 551.53 211.233L551.56 217.433Z" fill="#2E2E2E"/>
<path d="M453.75 160.033L452.64 163.033L451.58 165.943L451 167.593L450.92 167.843L450.81 168.143C450.549 168.893 450.001 169.509 449.287 169.856C448.573 170.202 447.751 170.252 447 169.993L429.42 164.593H429.34L404.08 156.833L410.64 141.323L413.53 134.493C413.899 133.634 414.574 132.943 415.424 132.555C416.275 132.166 417.24 132.109 418.13 132.393L452.94 143.393C451.812 143.136 450.665 142.972 449.51 142.903C448.69 142.854 447.869 142.988 447.106 143.294C446.344 143.6 445.659 144.071 445.1 144.673C444.571 145.274 444.19 145.991 443.987 146.765C443.784 147.539 443.764 148.35 443.93 149.133C444.451 151.143 445.485 152.983 446.93 154.473C447.07 154.633 447.21 154.773 447.37 154.933C448.663 156.367 450.159 157.603 451.81 158.603C451.81 158.603 451.86 158.603 451.92 158.683C452.498 159.175 453.11 159.626 453.75 160.033Z" fill="#222222"/>
<path d="M429.8 164.594C429.8 165.134 429.8 165.714 429.86 166.254C429.932 168.647 430.186 171.03 430.62 173.384C430.78 174.395 430.997 175.397 431.27 176.384C431.41 176.924 431.54 177.444 431.73 177.984C431.92 178.524 432.12 179.184 432.36 179.784C432.437 180.006 432.527 180.223 432.63 180.434" stroke="black" stroke-width="3.7" stroke-miterlimit="10"/>
<path d="M461.75 162.045C460.75 161.885 459.75 161.695 458.75 161.445C457.75 161.195 457.01 160.925 456.17 160.605C454.831 160.083 453.545 159.434 452.33 158.665C452.33 158.665 452.25 158.665 452.22 158.585C450.393 157.469 448.75 156.075 447.35 154.455C445.903 152.966 444.869 151.125 444.35 149.115C444.167 148.332 444.178 147.517 444.382 146.739C444.585 145.962 444.976 145.246 445.52 144.655C446.08 144.053 446.765 143.583 447.527 143.277C448.29 142.971 449.11 142.837 449.93 142.885C451.469 143.006 452.997 143.244 454.5 143.595C456.65 143.975 458.8 144.325 460.93 144.765C466.373 145.693 471.504 147.945 475.87 151.325C480.961 155.595 484.57 161.368 486.18 167.815C487.1 171.161 488.96 174.173 491.54 176.495L552.17 212.595" stroke="black" stroke-width="3.7" stroke-miterlimit="10"/>
<path d="M429.87 166.242C429.87 166.242 431.81 177.152 446.98 176.852C448.156 176.809 449.29 176.407 450.23 175.701C451.171 174.994 451.872 174.016 452.24 172.899C452.608 171.781 452.625 170.578 452.289 169.451C451.953 168.323 451.28 167.326 450.36 166.592L450.16 166.442" stroke="black" stroke-width="3.7" stroke-miterlimit="10"/>
<path d="M432.31 179.695C432.31 179.695 439.74 187.425 447.15 184.085C453.7 181.085 449.22 175.215 449.22 175.215" stroke="black" stroke-width="3.7" stroke-miterlimit="10"/>
<path d="M452.58 166.094L452.04 165.934" stroke="black" stroke-width="3.7" stroke-miterlimit="10"/>
<path d="M374.14 588.673C370.987 589.125 367.793 589.215 364.62 588.943L359.62 588.543L374.14 588.673Z" fill="#D7E8F0"/>
<path d="M430.34 362.645L411.69 549.645C410.712 559.417 406.476 568.576 399.664 575.649C392.852 582.723 383.858 587.3 374.13 588.645C370.977 589.096 367.783 589.187 364.61 588.915L359.61 588.515L131.44 570.085C124.828 569.569 118.423 567.54 112.72 564.155C109.962 558.357 108.537 552.015 108.55 545.595V541.245L318.18 558.245L323.18 558.655C326.353 558.917 329.546 558.826 332.7 558.385C342.426 557.035 351.417 552.457 358.228 545.384C365.04 538.311 369.277 529.155 370.26 519.385L385.26 369.235L430.34 362.645Z" fill="#222222"/>
<path d="M385.24 369.125L370.24 519.275C369.257 529.045 365.02 538.202 358.208 545.274C351.397 552.347 342.406 556.926 332.68 558.275C329.526 558.717 326.334 558.807 323.16 558.545L318.16 558.135L108.53 541.135V446.825C108.535 436.29 112.334 426.11 119.231 418.147C126.129 410.184 135.664 404.972 146.09 403.465L385.24 369.125Z" fill="#D7E8F0"/>
<path d="M391.54 607.783C388.384 608.234 385.187 608.325 382.01 608.053L377.01 607.653L391.54 607.783Z" fill="#D7E8F0"/>
<path d="M374.26 588.674L396.62 636.334C398.738 640.854 399.682 645.836 399.363 650.818C399.044 655.8 397.474 660.621 394.797 664.835C392.119 669.049 388.422 672.519 384.048 674.924C379.673 677.329 374.762 678.591 369.77 678.594H353.77C353.151 678.593 352.537 678.714 351.965 678.95C351.392 679.186 350.872 679.532 350.433 679.97C349.995 680.407 349.647 680.927 349.41 681.499C349.172 682.071 349.05 682.685 349.05 683.304V706.544C349.05 708.615 348.227 710.602 346.763 712.067C345.298 713.531 343.311 714.354 341.24 714.354C339.169 714.354 337.182 713.531 335.718 712.067C334.253 710.602 333.43 708.615 333.43 706.544V683.294C333.431 682.674 333.31 682.06 333.073 681.488C332.836 680.915 332.489 680.395 332.05 679.957C331.611 679.519 331.09 679.173 330.517 678.937C329.944 678.701 329.33 678.581 328.71 678.584H152.17C151.551 678.583 150.938 678.704 150.366 678.94C149.794 679.176 149.274 679.523 148.837 679.961C148.399 680.398 148.052 680.918 147.816 681.49C147.58 682.062 147.459 682.675 147.46 683.294V706.534C147.388 708.558 146.533 710.475 145.075 711.882C143.617 713.288 141.671 714.074 139.645 714.074C137.619 714.074 135.673 713.288 134.215 711.882C132.758 710.475 131.902 708.558 131.83 706.534V683.294C131.831 682.675 131.71 682.062 131.474 681.49C131.238 680.918 130.891 680.398 130.453 679.961C130.016 679.523 129.496 679.176 128.924 678.94C128.352 678.704 127.739 678.583 127.12 678.584H99.6799C98.0279 678.519 96.465 677.816 95.319 676.624C94.173 675.432 93.533 673.843 93.533 672.189C93.533 670.535 94.173 668.946 95.319 667.754C96.465 666.562 98.0279 665.859 99.6799 665.794H364C367.332 665.79 370.61 664.947 373.531 663.344C376.453 661.741 378.924 659.428 380.716 656.619C382.509 653.81 383.567 650.596 383.791 647.271C384.015 643.946 383.399 640.618 382 637.594L359.27 588.594" fill="#2E2E2E"/>
<path d="M364.61 588.945L131.44 570.095C120.473 569.211 110.242 564.229 102.782 556.143C95.3219 548.056 91.1789 537.457 91.1799 526.455V427.715C91.1829 417.182 94.9819 407.003 101.88 399.043C108.779 391.083 118.314 385.876 128.74 384.375L414.08 343.375L442.21 304.425C442.963 303.629 443.872 302.996 444.88 302.565C445.888 302.134 446.974 301.916 448.07 301.922C449.166 301.929 450.249 302.161 451.252 302.603C452.255 303.046 453.156 303.69 453.9 304.495C455.18 305.898 455.919 307.711 455.985 309.609C456.051 311.507 455.439 313.367 454.26 314.855L431.12 354.645L411.71 549.645C410.571 561.059 404.999 571.571 396.191 578.92C387.383 586.269 376.044 589.869 364.61 588.945Z" stroke="black" stroke-width="3.7" stroke-miterlimit="10"/>
<path d="M365.63 708.663C365.639 713.14 364.413 717.534 362.086 721.359C359.76 725.185 356.423 728.295 352.443 730.346C348.463 732.398 343.995 733.312 339.529 732.988C335.063 732.664 330.773 731.115 327.131 728.51C323.489 725.905 320.636 722.347 318.886 718.225C317.136 714.104 316.557 709.579 317.212 705.15C317.867 700.721 319.732 696.558 322.6 693.12C325.468 689.682 329.23 687.101 333.47 685.663V706.543C333.47 708.614 334.293 710.6 335.757 712.065C337.222 713.53 339.209 714.353 341.28 714.353C343.351 714.353 345.338 713.53 346.802 712.065C348.267 710.6 349.09 708.614 349.09 706.543V685.653C353.911 687.271 358.101 690.363 361.069 694.492C364.037 698.621 365.632 703.578 365.63 708.663Z" stroke="black" stroke-width="3.7" stroke-miterlimit="10"/>
<path d="M164 708.663C164.008 713.139 162.782 717.531 160.455 721.355C158.128 725.179 154.792 728.287 150.812 730.337C146.833 732.387 142.365 733.299 137.901 732.974C133.436 732.648 129.148 731.098 125.508 728.492C121.868 725.886 119.018 722.327 117.27 718.206C115.523 714.085 114.946 709.561 115.604 705.134C116.262 700.706 118.128 696.545 120.998 693.11C123.868 689.675 127.63 687.098 131.87 685.663V706.543C131.873 708.615 132.698 710.601 134.164 712.066C135.63 713.53 137.618 714.353 139.69 714.353C141.761 714.353 143.748 713.53 145.213 712.065C146.677 710.6 147.5 708.614 147.5 706.543V685.653C152.316 687.274 156.5 690.367 159.461 694.497C162.422 698.626 164.01 703.581 164 708.663Z" stroke="black" stroke-width="3.7" stroke-miterlimit="10"/>
<path d="M374.26 588.674L396.62 636.334C398.738 640.854 399.682 645.836 399.363 650.818C399.044 655.8 397.474 660.621 394.797 664.835C392.119 669.049 388.422 672.519 384.048 674.924C379.673 677.329 374.762 678.591 369.77 678.594H353.77C353.151 678.593 352.537 678.714 351.965 678.95C351.392 679.186 350.872 679.532 350.433 679.97C349.995 680.407 349.647 680.927 349.41 681.499C349.172 682.071 349.05 682.685 349.05 683.304V706.544C349.05 708.615 348.227 710.602 346.763 712.067C345.298 713.531 343.311 714.354 341.24 714.354C339.169 714.354 337.182 713.531 335.718 712.067C334.253 710.602 333.43 708.615 333.43 706.544V683.294C333.431 682.674 333.31 682.06 333.073 681.488C332.836 680.915 332.489 680.395 332.05 679.957C331.611 679.519 331.09 679.173 330.517 678.937C329.944 678.701 329.33 678.581 328.71 678.584H152.17C151.551 678.583 150.938 678.704 150.366 678.94C149.794 679.176 149.274 679.523 148.837 679.961C148.399 680.398 148.052 680.918 147.816 681.49C147.58 682.062 147.459 682.675 147.46 683.294V706.534C147.388 708.558 146.533 710.475 145.075 711.882C143.617 713.288 141.671 714.074 139.645 714.074C137.619 714.074 135.673 713.288 134.215 711.882C132.758 710.475 131.902 708.558 131.83 706.534V683.294C131.831 682.675 131.71 682.062 131.474 681.49C131.238 680.918 130.891 680.398 130.453 679.961C130.016 679.523 129.496 679.176 128.924 678.94C128.352 678.704 127.739 678.583 127.12 678.584H99.6799C98.0279 678.519 96.465 677.816 95.319 676.624C94.173 675.432 93.533 673.843 93.533 672.189C93.533 670.535 94.173 668.946 95.319 667.754C96.465 666.562 98.0279 665.859 99.6799 665.794H364C367.332 665.79 370.61 664.947 373.531 663.344C376.453 661.741 378.924 659.428 380.716 656.619C382.509 653.81 383.567 650.596 383.791 647.271C384.015 643.946 383.399 640.618 382 637.594L359.27 588.594" stroke="black" stroke-width="3.7" stroke-miterlimit="10"/>
<path d="M454.32 159.756L452 165.936L451.37 167.596L451.18 168.146C450.919 168.881 450.381 169.486 449.68 169.832C448.98 170.177 448.173 170.236 447.43 169.996L429.8 164.596L403 156.356C402.504 156.202 402.045 155.946 401.653 155.605C401.261 155.264 400.944 154.844 400.724 154.373C400.504 153.903 400.384 153.391 400.373 152.871C400.362 152.352 400.46 151.835 400.66 151.356L410.46 128.136C410.83 127.278 411.506 126.588 412.356 126.2C413.206 125.812 414.169 125.754 415.06 126.036L457.65 139.486C458.159 139.64 458.629 139.901 459.029 140.25C459.43 140.599 459.752 141.03 459.974 141.512C460.196 141.995 460.313 142.52 460.317 143.051C460.322 143.583 460.214 144.109 460 144.596" stroke="black" stroke-width="3.7" stroke-miterlimit="10"/>
<path d="M445.5 147.204L407.59 134.934" stroke="black" stroke-width="3.7" stroke-miterlimit="10"/>
<path d="M491.58 176.492C491.58 176.492 477 208.202 462.87 215.732C462.767 215.784 462.679 215.861 462.616 215.958C462.553 216.054 462.517 216.165 462.51 216.28C462.504 216.395 462.529 216.509 462.581 216.612C462.634 216.714 462.713 216.801 462.81 216.862L529.06 260.592" stroke="black" stroke-width="3.7" stroke-miterlimit="10"/>
<path d="M464 201.395C464 201.395 455.82 213.315 461.86 216.235" stroke="black" stroke-width="3.7" stroke-miterlimit="10"/>
<path d="M468.53 279.195C468.53 279.195 465.18 279.345 471.9 287.805C478.62 296.265 480.9 312.365 476.33 323.875C476.33 323.875 476.13 326.875 488.09 323.135C500.05 319.395 542 310.645 542 310.645C542 310.645 548.55 307.195 546.52 315.935C544.49 324.675 540.52 356.825 536.37 366.095C532.22 375.365 528.18 384.555 542.46 388.035C556.74 391.515 634.64 398.835 634.64 398.835C634.64 398.835 687.64 410.585 687.08 386.245C686.52 361.905 682.63 291.835 682.63 291.835C682.63 291.835 682.95 237.745 686.52 205.765C686.52 205.765 695.84 124.515 668.13 117.005C640.42 109.495 631.01 117.485 623.98 121.275C616.95 125.065 554.98 157.455 551.6 224.275C551.6 224.275 551.37 250.095 546.14 253.945C540.91 257.795 479.71 278.965 468.53 279.195Z" fill="#2E2E2E"/>
<path d="M567.87 705.383L560.87 732.973H475.64C473.769 732.96 471.977 732.222 470.64 730.913C469.746 730.015 469.108 728.894 468.794 727.667C468.48 726.439 468.5 725.149 468.854 723.932C469.207 722.715 469.88 721.615 470.803 720.747C471.725 719.878 472.864 719.272 474.1 718.993L525.18 705.383C525.18 705.383 554.75 715.773 567.87 705.383Z" fill="#2E2E2E"/>
<path d="M666.91 400.363C666.26 400.363 665.58 400.423 664.91 400.423C662.243 417.643 659.277 434.806 656.01 451.913C617.83 443.363 565.08 458.523 565.08 458.523L566.19 464.523C557.49 464.993 554.82 461.783 554.82 461.783L552.9 460.593L557.69 418.323L556.77 413.323V413.163C556.2 410.223 555.66 407.253 555.14 404.313L554.95 403.233C554.19 398.683 553.48 394.113 552.85 389.563L553.48 389.653C553.7 389.653 553.91 389.733 554.16 389.753L554.7 389.843C555.17 389.893 555.63 389.973 556.09 390.033C557.09 390.163 558.38 390.353 559.82 390.573C560.39 390.573 560.99 390.713 561.62 390.823C583.3 393.833 639.78 401.183 666.91 400.363Z" fill="#222222"/>
<path d="M609.81 539.464L609.68 539.985L567.87 705.384L560.87 732.974H475.64C473.769 732.961 471.977 732.223 470.64 730.914C469.746 730.016 469.109 728.894 468.795 727.666C468.481 726.437 468.502 725.148 468.855 723.93C469.208 722.713 469.881 721.612 470.803 720.742C471.726 719.872 472.864 719.266 474.1 718.985L525.18 705.384L552.9 460.594L557.69 418.324" stroke="black" stroke-width="3.7" stroke-miterlimit="10"/>
<path d="M478.52 311.365C475.52 311.505 473.84 311.535 473.84 311.535C470.84 311.745 467.93 310.605 465.05 309.055C457.35 304.805 449.97 297.355 442.57 303.615C437.78 307.615 433.83 318.875 425.91 315.205C419 311.995 419.27 305.205 420.41 298.985C421.83 291.285 428.06 284.425 435.41 283.195C445.53 281.485 455.93 281.405 466.11 279.635C486.615 275.885 506.683 270.048 526 262.215C547.45 253.665 570.85 244.855 586.69 227.295C605.5 206.505 617.45 179.295 623.98 152.235" stroke="black" stroke-width="3.7" stroke-miterlimit="10"/>
<path d="M584.43 40.4318C584.43 40.4318 586.3 9.3018 615.36 2.0118C644.42 -5.2782 661.76 28.4818 663.07 50.1518C664.38 71.8218 663.07 86.7718 678.34 93.5918C678.34 93.5918 722.47 93.0518 738.73 133.592C738.73 133.592 740.93 153.462 740.03 166.252C739.13 179.042 755.09 190.252 763.78 194.192C772.47 198.132 787.59 214.192 783.48 240.422C779.37 266.652 745.06 278.882 745.06 278.882C745.06 278.882 715.74 287.562 698.06 273.072C679.29 257.702 684.6 229.592 684.6 229.592C684.6 229.592 694.73 138.172 676.29 123.152C666.14 114.882 661.53 115.632 654.36 111.272C646.81 106.682 644.11 105.272 641.58 102.042C636.66 95.7118 627.94 86.1518 634.25 63.6018C640.56 41.0518 634.25 52.4218 628.25 49.2418C628.25 49.2418 620.89 37.8818 609.78 45.9118C598.67 53.9418 601.38 34.3518 601.38 34.3518L596.5 40.9118C596.5 40.9118 588.87 42.4418 584.43 40.4318Z" fill="#222222"/>
<path d="M577.59 51.1948C577.32 36.6648 582.74 20.3448 594.03 10.6648C595.563 9.34481 597.209 8.16382 598.95 7.13482C611.15 -0.0751839 628.1 0.574813 640.24 7.58481C646.696 11.4198 652.082 16.8188 655.9 23.2848L656 23.4648C660.704 31.5678 663.146 40.7858 663.07 50.1548C663.13 62.3348 663.2 78.8648 671.02 88.9748C675.96 95.3748 682.53 93.5748 689.76 94.6648C699.55 96.1358 708.836 99.9618 716.82 105.815C727.6 113.745 736.58 125.575 739.06 138.935C741.45 151.795 736.78 166.295 743.71 178.185C748.79 186.875 758.45 190.845 766.63 195.915C783.05 206.215 786.43 226.175 781.23 243.735C775.81 262.045 763.07 273.295 745.06 278.905C745.06 278.905 684.2 293.905 683.45 240.565" stroke="black" stroke-width="3.7" stroke-miterlimit="10"/>
<path d="M600.53 33.4338C599.9 37.7138 597.3 41.6638 592.67 42.8438C587.45 44.1738 584.67 49.2538 583.21 54.3638C581.121 61.8608 581.661 69.8458 584.74 76.9938C587.59 83.7138 592.68 91.3938 601.28 92.6238C617.02 94.8638 624.85 88.2338 624.85 88.2338" stroke="black" stroke-width="3.7" stroke-miterlimit="10"/>
<path d="M613.64 56.3028C615.137 56.3028 616.35 55.0898 616.35 53.5928C616.35 52.0958 615.137 50.8828 613.64 50.8828C612.143 50.8828 610.93 52.0958 610.93 53.5928C610.93 55.0898 612.143 56.3028 613.64 56.3028Z" fill="black"/>
<path d="M589.87 54.5258C591.367 54.5258 592.58 53.3118 592.58 51.8158C592.58 50.3188 591.367 49.1058 589.87 49.1058C588.373 49.1058 587.16 50.3188 587.16 51.8158C587.16 53.3118 588.373 54.5258 589.87 54.5258Z" fill="black"/>
<path d="M600.53 33.4338C599.934 36.0058 600.027 38.6888 600.8 41.2138C600.919 41.6228 601.073 42.0208 601.26 42.4038C603.14 46.8138 607.51 50.3338 615.26 49.8938C632.09 48.9638 638.09 47.8938 636.72 55.6238C636.153 58.3588 635.336 61.0368 634.28 63.6238C632.43 68.5338 631.14 76.9638 633.04 86.1438C635.23 96.8738 640.43 107.834 657.96 113.934" stroke="black" stroke-width="3.7" stroke-miterlimit="10"/>
<path d="M602 54.2538C602 54.2538 599.16 64.6338 599.45 66.1638C599.74 67.6938 603.37 66.5038 603.37 66.5038" stroke="black" stroke-width="3.7" stroke-miterlimit="10"/>
<path d="M604 76.0158C609.43 78.9458 615.73 77.0958 618.19 72.1958" stroke="black" stroke-width="3.7" stroke-miterlimit="10"/>
<path d="M626.947 64.3678C631.617 59.4198 631.295 51.5298 626.227 46.7458C621.159 41.9608 613.264 42.0938 608.593 47.0408C603.922 51.9888 604.244 59.8788 609.313 64.6628C614.381 69.4478 622.276 69.3148 626.947 64.3678Z" stroke="black" stroke-width="3.7" stroke-miterlimit="10"/>
<path d="M595.418 61.4728C600.089 56.5248 599.767 48.6358 594.698 43.8508C589.63 39.0668 581.735 39.1988 577.064 44.1468C572.394 49.0948 572.716 56.9838 577.784 61.7688C582.852 66.5528 590.747 66.4208 595.418 61.4728Z" stroke="black" stroke-width="3.7" stroke-miterlimit="10"/>
<path d="M586 44.1748C586.27 44.1598 586.54 44.1598 586.81 44.1748C589.118 44.3878 591.252 45.4918 592.761 47.2528C594.269 49.0128 595.033 51.2908 594.89 53.6048C594.762 55.7288 593.823 57.7218 592.267 59.1738C590.712 60.6248 588.658 61.4238 586.53 61.4048C586.26 61.4048 585.99 61.4048 585.72 61.4048C583.414 61.1858 581.283 60.0798 579.776 58.3208C578.268 56.5618 577.503 54.2868 577.64 51.9748C577.768 49.8508 578.707 47.8568 580.263 46.4058C581.819 44.9538 583.872 44.1548 586 44.1748ZM586 42.3248C583.406 42.3108 580.904 43.2898 579.006 45.0588C577.109 46.8278 575.958 49.2558 575.79 51.8448C575.619 54.6398 576.542 57.3918 578.364 59.5188C580.185 61.6468 582.762 62.9818 585.55 63.2448C585.88 63.2448 586.21 63.2948 586.55 63.2948C589.146 63.3048 591.647 62.3248 593.545 60.5538C595.442 58.7828 596.592 56.3548 596.76 53.7648C596.928 50.9698 596.004 48.2188 594.184 46.0918C592.363 43.9658 589.787 42.6288 587 42.3648C586.67 42.3648 586.34 42.3648 586 42.3648V42.3248Z" fill="white"/>
<path d="M605.31 54.5558L598.69 53.9458" stroke="black" stroke-width="3.7" stroke-miterlimit="10"/>
<path d="M617.49 46.8038H618.32C620.698 47.0278 622.896 48.1658 624.45 49.9798C626.004 51.7928 626.793 54.1398 626.65 56.5238C626.507 58.7058 625.534 60.7508 623.931 62.2378C622.328 63.7258 620.217 64.5438 618.03 64.5238C617.75 64.5238 617.48 64.5238 617.2 64.5238C614.822 64.2998 612.624 63.1608 611.07 61.3468C609.516 59.5338 608.727 57.1878 608.87 54.8038C609.011 52.6208 609.983 50.5738 611.586 49.0858C613.19 47.5978 615.302 46.7808 617.49 46.8038ZM617.49 44.9538C614.826 44.9348 612.257 45.9358 610.306 47.7498C608.356 49.5638 607.173 52.0558 607 54.7138C606.826 57.5768 607.772 60.3958 609.638 62.5758C611.504 64.7548 614.144 66.1238 617 66.3938C617.34 66.3938 617.67 66.4438 618 66.4438C620.66 66.4538 623.224 65.4488 625.168 63.6328C627.112 61.8178 628.289 59.3278 628.46 56.6738C628.649 53.8058 627.708 50.9788 625.84 48.7958C623.971 46.6128 621.322 45.2488 618.46 44.9938C618.12 44.9938 617.79 44.9938 617.46 44.9938L617.49 44.9538Z" fill="white"/>
<path d="M594.117 60.2448C598.124 55.9998 597.846 49.2298 593.497 45.1248C589.148 41.0188 582.373 41.1318 578.366 45.3768C574.359 49.6218 574.636 56.3908 578.985 60.4968C583.335 64.6028 590.109 64.4898 594.117 60.2448Z" fill="#222222"/>
<path d="M625.691 63.1678C629.717 58.9028 629.439 52.1018 625.07 47.9768C620.7 43.8518 613.894 43.9658 609.868 48.2308C605.842 52.4958 606.12 59.2968 610.489 63.4218C614.859 67.5468 621.665 67.4328 625.691 63.1678Z" fill="#222222"/>
<path d="M613.64 126.383L609.96 110.463L605.96 93.2928" stroke="black" stroke-width="3.7" stroke-miterlimit="10"/>
<path d="M791.27 662.235L732.89 730.485C731.734 731.845 730.107 732.719 728.335 732.932C726.563 733.145 724.776 732.682 723.33 731.635L721.73 730.465C720.388 729.486 719.43 728.069 719.023 726.458C718.615 724.847 718.784 723.145 719.5 721.645L742.44 673.905C742.44 673.905 778.94 674.955 778.64 641.125C786.91 658.215 791.27 662.235 791.27 662.235Z" fill="#2E2E2E"/>
<path d="M692.61 618.802L692.2 618.392L676.85 603.802L676.11 603.122L611.99 542.122V542.062L611.9 541.982L609.73 539.982L590.24 521.452C579.566 511.289 572.383 498.008 569.72 483.512L566.19 464.592L565.07 458.592L557.69 418.422L556.77 413.422V413.262C556.2 410.322 555.66 407.352 555.14 404.412L554.95 403.332" stroke="black" stroke-width="3.7" stroke-miterlimit="10"/>
<path d="M552.82 389.594C553.45 394.144 554.16 398.714 554.92 403.264L555.11 404.344C555.63 407.284 556.17 410.254 556.74 413.194V413.354" stroke="black" stroke-width="3.7" stroke-linejoin="round"/>
<path d="M611.84 542.024L611.92 542.104L611.98 542.164" stroke="black" stroke-width="3.7" stroke-linejoin="round"/>
<path d="M676.1 603.123L676.84 603.803C682.387 609.003 687.503 613.867 692.19 618.393L692.59 618.803C754.08 678.213 742.43 673.903 742.43 673.903L719.48 721.643C718.767 723.144 718.601 724.847 719.01 726.457C719.419 728.068 720.378 729.485 721.72 730.463L723.32 731.633C724.766 732.68 726.553 733.143 728.325 732.93C730.097 732.717 731.724 731.843 732.88 730.483L791.25 662.233C791.25 662.233 786.9 658.233 778.63 641.123C758.76 599.943 716.33 523.953 657.92 484.353C655.746 482.894 654.053 480.824 653.054 478.404C652.056 475.983 651.797 473.321 652.31 470.753C653.43 465.333 654.49 459.913 655.53 454.473C655.69 453.633 655.85 452.783 655.99 451.943C659.25 434.823 662.217 417.66 664.89 400.453" stroke="black" stroke-width="3.7" stroke-linejoin="round"/>
<path d="M549 252.664C549.9 239.664 551 227.894 552.19 217.664C552.35 216.114 552.54 214.584 552.7 213.084C555.14 190.794 567.23 170.674 582.1 154.364C596.8 138.244 615.51 122.574 636.74 116.224C643.579 114.069 650.778 113.291 657.92 113.934C662.822 114.524 667.507 116.296 671.571 119.099C675.635 121.902 678.957 125.652 681.25 130.024C684.096 135.614 685.912 141.67 686.61 147.904C686.61 147.984 686.61 148.064 686.61 148.154C687.86 158.154 687.15 168.644 687.26 178.574C687.45 199.294 685.68 219.974 683.39 240.574" stroke="black" stroke-width="3.7" stroke-linejoin="round"/>
<path d="M547.22 304.483V304.453" stroke="black" stroke-width="3.7" stroke-linejoin="round"/>
<path d="M466.14 279.594C475.61 290.674 481.51 306.844 477.45 321.304C476.45 324.734 472.83 329.384 469.54 325.154C468.708 323.957 468.151 322.591 467.91 321.154C466.98 317.084 465.76 313.084 465.05 308.954" stroke="black" stroke-width="3.7" stroke-miterlimit="10"/>
<path d="M473.41 326.794C550.76 306.354 660.29 299.434 683.88 191.594C686.968 177.235 687.891 162.495 686.62 147.864" stroke="black" stroke-width="3.7" stroke-miterlimit="10"/>
<path d="M547 309.355C545.47 335.155 537.39 363.355 532.93 377.355C532.581 378.441 532.472 379.589 532.61 380.721C532.749 381.853 533.131 382.941 533.731 383.911C534.331 384.881 535.134 385.709 536.085 386.338C537.036 386.967 538.113 387.382 539.24 387.555C542.89 388.125 547.51 388.805 552.82 389.555L553.45 389.645C553.67 389.645 553.88 389.725 554.13 389.745L554.67 389.835C555.14 389.885 555.6 389.965 556.06 390.025C557.26 390.215 558.51 390.375 559.79 390.565C560.36 390.565 560.96 390.705 561.59 390.815C592.59 395.215 638.77 400.965 664.9 400.395C665.58 400.395 666.26 400.395 666.9 400.335L668.9 400.255L670.84 400.145C677.98 399.625 682.84 398.405 684.23 396.255C693.23 382.645 676.53 304.425 684.53 229.555" stroke="black" stroke-width="3.7" stroke-miterlimit="10"/>
<path d="M755.03 732.985H22.8" stroke="black" stroke-width="3.7" stroke-linejoin="round"/>
<path d="M56.73 503.696C56.73 503.696 -42.42 619.986 56.73 731.776" stroke="#CCDDE2" stroke-width="3.7" stroke-miterlimit="10"/>
</g>
<defs>
<filter id="filter0_d_13_3" x="0.150024" y="0.16925" width="911.7" height="742.732" filterUnits="userSpaceOnUse" color-interpolation-filters="sRGB">
<feFlood flood-opacity="0" result="BackgroundImageFix"/>
<feColorMatrix in="SourceAlpha" type="matrix" values="0 0 0 0 0 0 0 0 0 0 0 0 0 0 0 0 0 0 127 0" result="hardAlpha"/>
<feOffset dy="4"/>
<feGaussianBlur stdDeviation="2"/>
<feComposite in2="hardAlpha" operator="out"/>
<feColorMatrix type="matrix" values="0 0 0 0 0 0 0 0 0 0 0 0 0 0 0 0 0 0 0.25 0"/>
<feBlend mode="normal" in2="BackgroundImageFix" result="effect1_dropShadow_13_3"/>
<feBlend mode="normal" in="SourceGraphic" in2="effect1_dropShadow_13_3" result="shape"/>
</filter>
</defs>
</svg>
