<svg width="903" height="575" viewBox="0 0 903 575" fill="none" xmlns="http://www.w3.org/2000/svg">
<path d="M855.991 571.853H570.761H590.521L770.921 569.763C804.271 566.863 827.771 534.153 815.101 503.183C812.911 497.833 815.201 496.343 812.491 491.183C784.131 437.783 734.961 394.283 679.241 369.013C680.621 368.753 682.011 368.563 683.431 368.373C673.055 363.177 662.368 358.625 651.431 354.743C645.631 352.673 639.761 350.803 633.901 349.163C605.091 341.043 566.161 344.753 553.901 376.653C543.591 403.433 557.281 435.783 583.031 447.513L629.281 465.193C628.891 464.613 628.541 464.033 628.181 463.423L668.401 478.793C669.199 479.352 669.808 480.142 670.144 481.056C670.481 481.971 670.531 482.966 670.286 483.909C670.041 484.853 669.514 485.699 668.775 486.334C668.036 486.969 667.12 487.363 666.151 487.463L568.471 498.133C554.391 499.553 536.761 505.443 526.381 515.133C518.811 522.133 512.431 531.663 512.491 543.723C506.107 544.204 499.76 545.096 493.491 546.393C483.921 548.453 474.181 552.003 473.491 557.833C472.131 569.533 488.761 571.913 499.241 571.913L432.921 571.653C440.041 571.653 440.921 571.593 445.641 566.893C450.361 562.193 455.641 558.573 455.641 551.453L456.221 528.633C456.221 523.933 457.341 520.133 452.641 520.133H410.641C412.351 520.18 414.038 519.733 415.501 518.846C416.964 517.96 418.141 516.671 418.891 515.133C418.923 515.097 418.944 515.052 418.951 515.003C421.051 511.103 421.531 505.493 421.141 500.183L421.631 498.443L422.891 493.803L449.571 478.103C449.771 477.987 449.965 477.86 450.151 477.723C464.071 469.213 465.811 454.003 461.041 440.403C460.941 440.143 460.881 439.913 460.781 439.693C460.561 439.113 460.361 438.563 460.111 438.013C458.837 434.912 457.26 431.944 455.401 429.153C448.511 418.393 438.511 409.623 429.011 407.333C426.346 406.731 423.623 406.429 420.891 406.433C453.951 375.433 492.041 347.883 537.031 338.723C576.395 330.591 617.104 331.652 655.991 341.823C701.431 353.913 742.351 379.013 774.801 412.913C818.481 458.483 838.911 511.723 855.991 571.853Z" fill="#353642"/>
<path d="M411.591 434.842C410.023 437.93 407.457 440.396 404.311 441.842C401.624 443.193 398.779 444.201 395.841 444.842C391.001 445.652 389.291 442.592 386.201 439.592C384.439 437.89 382.413 436.485 380.201 435.432C378.875 434.781 377.422 434.432 375.946 434.41C374.469 434.387 373.006 434.692 371.661 435.302C370.751 435.708 369.977 436.369 369.434 437.204C368.891 438.04 368.602 439.016 368.601 440.012C368.801 443.682 373.861 446.582 376.721 448.102C380.455 449.866 384.336 451.298 388.321 452.382C398.091 455.382 381.821 461.632 378.401 462.022C371.086 463.013 363.661 462.837 356.401 461.502C358.485 466.159 360.084 471.018 361.171 476.002C362.301 480.772 363.621 486.512 362.691 491.312C361.561 496.952 357.751 501.142 353.051 503.982L334.781 427.762C341.518 424.553 348.845 422.771 356.303 422.526C363.761 422.282 371.189 423.581 378.121 426.342C380.433 427.195 382.94 427.365 385.346 426.833C387.752 426.301 389.954 425.09 391.691 423.342L393.561 421.532C396.165 420.966 398.879 421.181 401.361 422.152C405.791 423.822 413.991 429.192 411.591 434.842Z" fill="#2E2E2E"/>
<path d="M430.351 520.071H354.911C354.148 527.187 350.781 533.77 345.457 538.554C340.133 543.337 333.228 545.982 326.071 545.981H72.4509C72.4669 552.84 75.1989 559.413 80.0489 564.263C84.8989 569.113 91.4719 571.845 98.3309 571.861H430.331C437.19 571.837 443.762 569.104 448.615 564.256C453.469 559.409 456.209 552.84 456.241 545.981V528.581C456.241 526.324 455.344 524.159 453.749 522.563C452.153 520.967 449.988 520.071 447.731 520.071H430.351Z" stroke="black" stroke-width="4.83" stroke-miterlimit="10"/>
<path d="M313.851 350.892C316.08 353.962 317.68 357.442 318.561 361.132L354.301 510.132C355.091 513.366 355.297 516.716 354.911 520.022C354.148 527.139 350.781 533.722 345.457 538.505C340.133 543.288 333.228 545.933 326.071 545.932H67.7409C61.2189 545.928 54.8869 543.729 49.7664 539.69C44.6455 535.65 41.0332 530.004 39.5109 523.662L3.81088 374.662C2.77978 370.394 2.73138 365.947 3.66938 361.657C4.60728 357.368 6.50718 353.347 9.22568 349.899C11.9442 346.45 15.4103 343.664 19.3625 341.751C23.3147 339.837 27.6498 338.846 32.0409 338.852H290.331C294.574 338.846 298.766 339.776 302.608 341.575C306.451 343.374 309.849 345.999 312.561 349.262L313.851 350.892Z" stroke="black" stroke-width="4.83" stroke-miterlimit="10"/>
<path d="M188.524 483.246C203.235 478.607 210.935 461.444 205.722 444.91C200.509 428.376 184.357 418.733 169.645 423.371C154.934 428.01 147.234 445.173 152.447 461.707C157.66 478.241 173.812 487.884 188.524 483.246Z" fill="#D7E8F0"/>
<path d="M684.841 367.502C662.051 371.312 644.531 381.732 632.771 403.302C622.241 422.602 621.011 446.152 632.241 465.302L586.391 447.722C559.841 435.562 550.501 408.542 561.141 380.792C573.791 347.732 613.931 343.892 643.641 352.312C649.691 354.012 655.731 355.952 661.711 358.092C669.524 360.892 677.234 364.029 684.841 367.502Z" fill="#353642"/>
<path d="M150.871 338.873C169.061 315.368 194.144 298.138 222.611 289.593C218.819 279.408 215.811 268.947 213.611 258.303C189.991 143.423 263.861 31.1127 378.711 7.42272C493.561 -16.2673 605.911 57.5728 629.591 172.423C632.238 185.293 633.711 198.377 633.991 211.513C642.196 208.602 650.593 206.263 659.121 204.513C759.491 183.763 857.691 248.343 878.411 348.733C884.259 376.96 883.441 406.162 876.024 434.017C868.606 461.872 854.792 487.613 835.681 509.193" stroke="#9F9F9F" stroke-width="4.83" stroke-miterlimit="10"/>
<path d="M401.221 520.083H408.311C410.349 520.133 412.371 519.706 414.216 518.839C416.061 517.971 417.679 516.685 418.941 515.083C418.974 515.046 418.998 515.002 419.011 514.953C421.554 511.476 422.712 507.178 422.261 502.893L421.681 498.383L421.201 494.743L422.941 493.743L450.201 477.663L452.041 476.603C465.351 468.773 466.311 454.173 461.091 440.343C461.001 440.093 460.931 439.863 460.841 439.633C460.611 439.053 460.381 438.513 460.161 437.963C458.826 434.891 457.251 431.929 455.451 429.103C448.561 418.333 438.571 409.573 429.061 407.283C426.397 406.676 423.673 406.374 420.941 406.383C415.241 406.383 408.941 407.473 405.631 410.763C440.991 375.973 482.301 343.323 531.991 333.193C571.372 325.075 612.096 326.156 650.991 336.353C696.431 348.443 737.391 373.574 769.841 407.474C771.551 409.254 773.221 411.053 774.841 412.893C815.511 457.593 841.451 514.053 857.841 571.833" stroke="black" stroke-width="4.83" stroke-miterlimit="10"/>
<path d="M413.691 571.864H902.991" stroke="black" stroke-width="4.83" stroke-miterlimit="10"/>
<path d="M536.871 571.852H592.391" stroke="black" stroke-width="3.22" stroke-miterlimit="10"/>
<path d="M583.281 447.25C557.521 435.52 543.841 403.17 554.141 376.4C566.421 344.49 605.351 340.78 634.141 348.9C640.021 350.547 645.864 352.407 651.671 354.48C716.401 377.48 775.221 425.23 807.341 485.73C810.051 490.85 812.211 496.11 814.401 501.47C817.353 508.671 818.571 516.465 817.955 524.223C817.339 531.982 814.908 539.486 810.857 546.131C806.806 552.776 801.249 558.375 794.634 562.477C788.02 566.578 780.534 569.066 772.781 569.74L592.391 571.85H536.871C531.966 571.851 527.184 570.316 523.195 567.461C519.207 564.606 516.212 560.574 514.631 555.93C508.541 537.93 516.411 524.35 526.361 515.1C536.741 505.46 550.281 499.95 564.361 498.53L665.701 488.29C666.671 488.191 667.588 487.797 668.329 487.162C669.07 486.527 669.599 485.681 669.845 484.737C670.092 483.794 670.045 482.797 669.71 481.881C669.375 480.965 668.768 480.172 667.971 479.61L583.281 447.25Z" stroke="black" stroke-width="4.83" stroke-miterlimit="10"/>
<path d="M553.071 518.192C543.821 523.512 534.311 531.842 531.131 542.392C527.471 554.542 536.061 565.582 545.821 571.902" stroke="black" stroke-width="4.83" stroke-miterlimit="10"/>
<path d="M562.991 532.133C554.361 540.343 546.881 550.753 551.871 563.133C553.298 566.53 555.52 569.535 558.351 571.893" stroke="black" stroke-width="4.83" stroke-miterlimit="10"/>
<path d="M579.921 548.192C579.921 548.192 560.051 562.962 572.671 571.822" stroke="black" stroke-width="4.83" stroke-miterlimit="10"/>
<path d="M528.921 570.441L529.271 571.861H497.211C486.731 571.861 472.211 570.251 473.581 558.551C474.951 546.851 512.481 543.661 512.481 543.661" stroke="black" stroke-width="4.83" stroke-miterlimit="10"/>
<path d="M471.411 202.531L403.181 212.741L415.071 221.121L437.311 238.931C440.791 241.381 439.921 247.161 441.851 250.671C442.584 255.969 441.751 261.365 439.456 266.196C437.161 271.026 433.503 275.08 428.933 277.858C424.363 280.637 419.08 282.018 413.735 281.832C408.391 281.645 403.217 279.9 398.851 276.811L345.201 239.071C339.279 234.982 334.526 229.419 331.411 222.931C327.021 201.081 340.491 176.781 366.411 172.931L440.991 161.731L429.991 153.191L396.121 126.831C393.22 124.585 390.799 121.779 389.001 118.581C388.248 113.167 389.129 107.651 391.531 102.74C393.934 97.8297 397.748 93.7487 402.486 91.0207C407.223 88.2927 412.667 87.0417 418.12 87.4287C423.573 87.8147 428.786 89.8217 433.091 93.1907L493.511 140.191C498.452 143.986 502.446 148.873 505.181 154.471C509.301 175.591 496.121 198.821 471.411 202.531Z" fill="#2E2E2E"/>
<path d="M421.211 494.731C421.211 494.731 419.131 476.431 412.081 469.981" stroke="black" stroke-width="4.83" stroke-miterlimit="10"/>
<path d="M334.081 429.044C340.889 425.7 348.322 423.821 355.901 423.528C363.48 423.235 371.036 424.535 378.081 427.344C380.396 428.198 382.907 428.369 385.316 427.837C387.725 427.305 389.931 426.093 391.671 424.344L405.601 410.704" stroke="black" stroke-width="4.83" stroke-miterlimit="10"/>
<path d="M378.361 506.78L389.991 512.01C390.25 512.117 390.528 512.168 390.808 512.161C391.088 512.153 391.363 512.087 391.616 511.966C391.868 511.846 392.093 511.673 392.274 511.46C392.456 511.247 392.591 510.999 392.671 510.73L394.501 506.59" stroke="black" stroke-width="4.83" stroke-miterlimit="10"/>
<path d="M380.261 483.68C381.236 485.918 381.574 488.38 381.239 490.798C380.903 493.215 379.908 495.493 378.361 497.38" stroke="black" stroke-width="3.22" stroke-miterlimit="10"/>
<path d="M406.641 520.071C408.471 517.361 408.461 510.81 407.991 508.18C407.691 506.51 404.881 505.911 404.581 507.591C403.761 512.281 398.471 519.491 393.581 520.071" stroke="black" stroke-width="4.83" stroke-miterlimit="10"/>
<path d="M383.161 502.392C391.407 502.392 398.091 495.707 398.091 487.462C398.091 479.216 391.407 472.532 383.161 472.532C374.915 472.532 368.231 479.216 368.231 487.462C368.231 495.707 374.915 502.392 383.161 502.392Z" stroke="black" stroke-width="4.83" stroke-miterlimit="10"/>
<path d="M378.161 501.52L375.501 509C373.654 508.342 371.695 508.054 369.737 508.153C367.779 508.252 365.859 508.736 364.088 509.577C362.317 510.419 360.729 511.601 359.415 513.057C358.101 514.512 357.087 516.212 356.431 518.06" stroke="black" stroke-width="4.83" stroke-miterlimit="10"/>
<path opacity="0.53" d="M383.161 500.101C390.142 500.101 395.801 494.442 395.801 487.461C395.801 480.48 390.142 474.821 383.161 474.821C376.18 474.821 370.521 480.48 370.521 487.461C370.521 494.442 376.18 500.101 383.161 500.101Z" fill="white"/>
<path d="M352.991 504.963C357.691 502.123 361.491 497.963 362.621 492.303C363.561 487.493 362.241 481.763 361.111 476.993C360.025 472.008 358.427 467.149 356.341 462.493C363.601 463.825 371.027 463.997 378.341 463.003C381.751 462.623 398.031 456.403 388.261 453.373C384.277 452.292 380.399 450.856 376.671 449.083C373.791 447.593 368.741 444.693 368.561 441.013C368.549 440.019 368.826 439.042 369.358 438.202C369.891 437.363 370.656 436.696 371.561 436.283C372.907 435.676 374.371 435.374 375.848 435.4C377.324 435.426 378.777 435.779 380.101 436.433C382.319 437.476 384.347 438.882 386.101 440.593C389.201 443.593 390.891 446.593 395.751 445.823C398.685 445.191 401.525 444.182 404.201 442.823C407.354 441.38 409.927 438.913 411.501 435.823C413.921 430.193 405.701 424.823 401.241 423.213C398.763 422.24 396.054 422.017 393.451 422.573" stroke="black" stroke-width="4.83" stroke-miterlimit="10"/>
<path d="M471.411 202.531L403.181 212.741L415.071 221.121L430.451 231.921C433.47 233.966 436.051 236.592 438.045 239.645C440.038 242.698 441.403 246.118 442.06 249.704C442.716 253.291 442.652 256.972 441.871 260.534C441.089 264.095 439.606 267.465 437.507 270.447C435.409 273.429 432.737 275.963 429.649 277.901C426.56 279.839 423.117 281.142 419.519 281.735C415.921 282.327 412.241 282.197 408.695 281.352C405.148 280.506 401.805 278.963 398.861 276.811L345.211 239.071C339.289 234.982 334.536 229.419 331.421 222.931C320.011 199.241 333.351 167.691 363.161 163.241L422.331 154.381L429.991 153.191L396.121 126.831C393.277 124.618 390.897 121.866 389.117 118.733C387.337 115.6 386.191 112.146 385.745 108.57C385.3 104.995 385.563 101.366 386.519 97.8908C387.476 94.4168 389.108 91.1647 391.321 88.3207C393.534 85.4777 396.286 83.0977 399.42 81.3167C402.553 79.5367 406.006 78.3907 409.582 77.9457C413.158 77.4997 416.787 77.7628 420.261 78.7198C423.735 79.6758 426.987 81.3078 429.831 83.5208L490.251 130.521C497.985 136.403 503.284 144.924 505.141 154.461C509.301 175.591 496.121 198.821 471.411 202.531Z" stroke="black" stroke-width="4.83" stroke-miterlimit="10"/>
<path d="M321.651 318.522L320.991 301.092L313.261 309.012C311.95 310.352 310.16 311.117 308.286 311.14C306.411 311.162 304.604 310.44 303.261 309.132C301.921 307.821 301.156 306.031 301.133 304.157C301.111 302.282 301.833 300.475 303.141 299.132L316.991 284.992C318.418 283.531 320.243 282.521 322.238 282.087C324.234 281.653 326.313 281.813 328.218 282.549C330.123 283.284 331.771 284.562 332.957 286.225C334.143 287.887 334.815 289.861 334.891 291.902L335.541 309.682L341.241 303.252C341.857 302.554 342.605 301.985 343.442 301.578C344.278 301.17 345.187 300.931 346.116 300.875C347.045 300.819 347.976 300.948 348.856 301.253C349.735 301.558 350.546 302.033 351.241 302.652C351.938 303.268 352.507 304.016 352.915 304.852C353.323 305.688 353.562 306.597 353.619 307.526C353.675 308.454 353.548 309.385 353.245 310.265C352.942 311.144 352.468 311.956 351.851 312.652L340.621 325.322C339.188 326.957 337.297 328.123 335.192 328.668C333.088 329.214 330.868 329.113 328.821 328.379C326.775 327.646 324.997 326.313 323.718 324.555C322.439 322.797 321.719 320.695 321.651 318.522Z" fill="#D7E8F0"/>
<path d="M379.591 349.963L387.821 348.123L383.371 345.123C382.617 344.614 382.095 343.828 381.919 342.937C381.743 342.045 381.927 341.119 382.431 340.363C382.939 339.608 383.726 339.086 384.618 338.912C385.511 338.738 386.436 338.925 387.191 339.433L395.131 344.743C395.954 345.292 396.597 346.071 396.981 346.983C397.365 347.895 397.473 348.9 397.291 349.872C397.108 350.845 396.645 351.742 395.957 352.454C395.269 353.165 394.387 353.658 393.421 353.873L384.991 355.773L388.561 357.923C388.946 358.155 389.282 358.461 389.548 358.822C389.815 359.184 390.008 359.595 390.116 360.032C390.223 360.469 390.244 360.922 390.176 361.367C390.109 361.811 389.954 362.238 389.721 362.623C389.252 363.4 388.494 363.96 387.613 364.179C386.732 364.398 385.8 364.259 385.021 363.793L378.021 359.563C377.121 359.025 376.403 358.228 375.961 357.277C375.519 356.326 375.373 355.264 375.542 354.229C375.711 353.194 376.188 352.233 376.91 351.473C377.632 350.712 378.566 350.186 379.591 349.963Z" fill="#D7E8F0"/>
<path d="M358.781 398.032L359.451 392.532L356.621 394.632C356.384 394.809 356.115 394.937 355.828 395.009C355.541 395.082 355.243 395.097 354.951 395.055C354.658 395.012 354.377 394.912 354.123 394.76C353.869 394.609 353.648 394.409 353.471 394.172C353.117 393.692 352.966 393.092 353.052 392.502C353.138 391.912 353.454 391.38 353.931 391.022L358.931 387.272C359.452 386.884 360.075 386.657 360.724 386.619C361.372 386.582 362.018 386.736 362.58 387.061C363.142 387.387 363.596 387.871 363.886 388.452C364.176 389.033 364.289 389.687 364.211 390.332L363.531 395.952L365.641 394.212C365.869 394.024 366.133 393.883 366.416 393.796C366.699 393.71 366.996 393.681 367.29 393.709C367.585 393.738 367.871 393.825 368.132 393.964C368.392 394.104 368.623 394.293 368.811 394.522C368.999 394.75 369.14 395.013 369.226 395.296C369.313 395.579 369.342 395.877 369.313 396.171C369.285 396.466 369.198 396.751 369.059 397.012C368.919 397.273 368.73 397.504 368.501 397.692L364.341 401.112C363.809 401.535 363.163 401.792 362.485 401.848C361.807 401.905 361.127 401.759 360.532 401.429C359.937 401.1 359.453 400.601 359.141 399.996C358.83 399.391 358.704 398.708 358.781 398.032Z" fill="#D7E8F0"/>
<path d="M684.841 368.192L684.421 368.902C684.102 368.702 683.768 368.529 683.421 368.382L684.841 368.192Z" fill="#353642"/>
</svg>
