<svg width="656" height="906" viewBox="0 0 656 906" fill="none" xmlns="http://www.w3.org/2000/svg">
<path d="M653.28 749.109H534.28V761.799C534.28 777.58 540.549 792.714 551.707 803.872C562.866 815.031 578 821.299 593.78 821.299C609.561 821.299 624.695 815.031 635.853 803.872C647.011 792.714 653.28 777.58 653.28 761.799V749.109Z" fill="#D7E8F0"/>
<path d="M198.47 820.412C187.796 820.426 177.316 817.554 168.14 812.102" stroke="#CCDDE2" stroke-width="4.52" stroke-miterlimit="10"/>
<path d="M139.15 102.2L138.96 62.51C138.963 46.7278 145.233 31.5927 156.393 20.433C167.553 9.2733 182.688 3.0027 198.47 3H593.77" stroke="#CCDDE2" stroke-width="4.52" stroke-miterlimit="10"/>
<path d="M534.29 760.902V749.102V170.692V62.512" stroke="#CCDDE2" stroke-width="4.52" stroke-miterlimit="10"/>
<path d="M534.29 156.892H653.29V62.512C653.29 46.7313 647.021 31.5973 635.863 20.4389C624.704 9.28052 609.57 3.01172 593.79 3.01172C578.01 3.01172 562.875 9.28052 551.717 20.4389C540.559 31.5973 534.29 46.7313 534.29 62.512V170.692" fill="#D7E8F0"/>
<path d="M534.29 156.892H653.29V62.512C653.29 46.7313 647.021 31.5973 635.863 20.4389C624.704 9.28052 609.57 3.01172 593.79 3.01172C578.01 3.01172 562.875 9.28052 551.717 20.4389C540.559 31.5973 534.29 46.7313 534.29 62.512V170.692" stroke="#CCDDE2" stroke-width="4.52" stroke-miterlimit="10"/>
<path d="M534.28 749.109V760.909C534.28 776.69 540.549 791.824 551.707 802.982C562.866 814.141 578 820.409 593.78 820.409" stroke="#CCDDE2" stroke-width="4.52" stroke-miterlimit="10"/>
<path d="M226.14 820.41H198.47" stroke="#CCDDE2" stroke-width="4.52" stroke-miterlimit="10"/>
<path d="M534.29 749.102H653.29V760.902C653.285 776.683 647.013 791.817 635.854 802.976C624.695 814.135 609.561 820.406 593.78 820.412H306.52" stroke="#CCDDE2" stroke-width="4.52" stroke-miterlimit="10"/>
<path d="M467.71 264.629H371.58" stroke="#CCDDE2" stroke-width="4.52" stroke-miterlimit="10"/>
<path d="M467.71 301.898H371.58" stroke="#CCDDE2" stroke-width="4.52" stroke-miterlimit="10"/>
<path d="M467.71 339.18H371.58" stroke="#CCDDE2" stroke-width="4.52" stroke-miterlimit="10"/>
<path d="M467.71 376.449H371.58" stroke="#CCDDE2" stroke-width="4.52" stroke-miterlimit="10"/>
<path d="M467.71 413.719H371.58" stroke="#CCDDE2" stroke-width="4.52" stroke-miterlimit="10"/>
<path d="M467.71 450.988H371.58" stroke="#CCDDE2" stroke-width="4.52" stroke-miterlimit="10"/>
<path d="M467.71 575.512H371.58" stroke="#CCDDE2" stroke-width="4.52" stroke-miterlimit="10"/>
<path d="M467.71 592.891H371.58" stroke="#CCDDE2" stroke-width="4.52" stroke-miterlimit="10"/>
<path d="M467.71 610.27H371.58" stroke="#CCDDE2" stroke-width="4.52" stroke-miterlimit="10"/>
<path d="M467.71 627.648H371.58" stroke="#CCDDE2" stroke-width="4.52" stroke-miterlimit="10"/>
<path d="M488.54 215.762H349.15C337.784 215.762 328.57 224.976 328.57 236.342V657.522C328.57 668.888 337.784 678.102 349.15 678.102H488.54C499.906 678.102 509.12 668.888 509.12 657.522V236.342C509.12 224.976 499.906 215.762 488.54 215.762Z" stroke="#CCDDE2" stroke-width="4.52" stroke-miterlimit="10"/>
<path d="M358.03 294.88C358.03 294.88 411.25 387.28 390.41 429.8C390.41 429.8 375.1 459.67 341.22 456.7C307.34 453.73 324.64 385.48 294.16 367.41C263.68 349.34 311.42 274.41 311.89 275C312.36 275.59 358.03 294.88 358.03 294.88Z" fill="white"/>
<path d="M371.58 178.609H295.54" stroke="#CCDDE2" stroke-width="4.52" stroke-miterlimit="10"/>
<path d="M371.58 134.82H307.81" stroke="#CCDDE2" stroke-width="4.52" stroke-miterlimit="10"/>
<path d="M371.58 156.719H298.9" stroke="#CCDDE2" stroke-width="4.52" stroke-miterlimit="10"/>
<path d="M371.58 112.93H285.55" stroke="#CCDDE2" stroke-width="4.52" stroke-miterlimit="10"/>
<path d="M362.29 303.79C310.53 295.22 296.29 345.95 296.29 345.95C296.29 345.95 311.47 375.19 311.85 376.78C313.15 394.37 296.95 395.34 296.95 395.34L239.73 407.34L216.32 370.62C216.32 370.62 198.89 253.15 194.32 253.22C189.75 253.29 192.32 251.41 192.32 251.41C196.82 247.76 194.46 230.58 194.46 230.58C193.8 223.24 206.08 220.48 218.63 216.73C231.18 212.98 224.99 220.66 222.89 230.58C220.79 240.5 218.5 262.58 243.51 264.64C268.52 266.7 270.75 255.06 276.98 244.64C281.28 237.45 279.14 227.74 277.42 222.43C289.147 226.509 300.42 231.79 311.06 238.19C312.72 239.19 314.31 240.19 315.88 241.34C338.36 256.76 351.05 279.58 362.29 303.79Z" fill="#2E2E2E"/>
<path d="M82.72 453.742C82.72 453.742 80.41 454.982 88.17 455.032C95.93 455.082 184.84 448.612 255.26 486.462C255.26 486.462 276.75 497.462 284.65 514.182C284.65 514.182 286.8 516.262 291.09 506.112C295.38 495.962 305.97 463.772 305.97 463.772C305.97 463.772 308.78 461.082 302.84 460.772C296.9 460.462 224.84 452.042 194.51 443.432C164.18 434.822 132.36 430.512 128.08 421.252L129.08 415.412C129.08 415.412 92.13 413.002 91.17 419.002C90.21 425.002 82.72 453.742 82.72 453.742Z" fill="#2E2E2E"/>
<path d="M255.013 157.579C259.683 153.193 259.828 145.761 255.336 140.978C250.845 136.195 243.418 135.873 238.748 140.258C234.078 144.644 233.933 152.077 238.424 156.859C242.916 161.642 250.343 161.964 255.013 157.579Z" fill="#D7E8F0"/>
<path d="M221.789 152.512C226.463 148.123 226.608 140.684 222.113 135.897C217.617 131.11 210.184 130.788 205.51 135.177C200.836 139.567 200.691 147.006 205.186 151.792C209.681 156.579 217.114 156.902 221.789 152.512Z" fill="#D7E8F0"/>
<path d="M229.48 199.33C229.48 199.33 228.42 205.26 226.19 215.4C220.68 215.3 214.06 220.4 208.64 220.32C206.34 204.79 209.72 192.79 213.5 184.84C217.64 195.15 224.27 198.44 229.48 199.33Z" fill="#222222"/>
<path d="M318.41 242.708C307.59 236.338 296.49 228.308 284.19 224.888L277.19 221.708C277.19 221.708 276.66 220.378 276.64 220.358C275.34 216.728 273.15 211.898 272.54 208.108C271.792 203.621 271.718 199.047 272.32 194.538C273.32 187.838 276.87 173.738 282.66 169.428C287.49 165.858 289.41 166.698 292.27 160.978C294.27 156.898 295.27 149.978 291.67 146.808C287.67 143.328 285.81 145.008 280.85 145.348C261.98 146.638 251.65 132.768 245.21 116.918C244.289 114.253 243.007 111.726 241.4 109.408C239.4 106.858 236.59 106.208 234.32 104.118C233.804 103.703 233.424 103.143 233.23 102.51C233.036 101.878 233.036 101.201 233.23 100.568C233.532 99.991 233.955 99.486 234.47 99.088C239 95.165 244.383 92.35 250.19 90.868C259.376 88.523 269.004 88.523 278.19 90.868C288.075 94.32 296.435 101.133 301.81 110.118C309.49 123.118 311.02 136.488 306.1 149.568C301.1 162.978 295.41 178.728 303.69 192.028C314.72 209.698 321.33 222.088 318.41 242.708Z" fill="#222222"/>
<path d="M237.13 199.07C234.624 199.675 232.021 199.764 229.48 199.33C224.27 198.44 217.63 195.15 213.48 184.84C212.635 182.736 211.966 180.565 211.48 178.35C209.48 169.9 208.87 158.16 210.69 141.88C211.04 138.76 211.52 135.59 212.15 132.43C213.201 126.928 214.788 121.543 216.89 116.35C216.89 116.35 216.89 116.35 216.89 116.29C222.12 103.64 230.96 93.1 245.4 89.38C256.224 86.609 267.628 87.121 278.16 90.85C288.045 94.302 296.405 101.115 301.78 110.1C309.46 123.1 310.99 136.47 306.07 149.55C301.07 162.96 295.38 178.71 303.66 192.01C314.66 209.7 321.3 222.09 318.43 242.71" stroke="black" stroke-width="4.52" stroke-miterlimit="10"/>
<path d="M204.23 220.822C200.64 200.542 206.76 186.022 211.46 178.352" stroke="black" stroke-width="4.52" stroke-miterlimit="10"/>
<path d="M212.14 132.419C212.14 132.419 221.63 123.079 231.83 138.599" stroke="black" stroke-width="4.52" stroke-miterlimit="10"/>
<path d="M233.24 180.882C236.76 183.882 242.19 183.032 245.55 179.572C249.19 175.802 251.17 170.392 252.55 165.422C252.65 165.072 252.74 164.712 252.82 164.352C247.13 171.122 237.76 171.682 229.61 171.352C229.595 173.808 230.189 176.231 231.34 178.402C231.81 179.341 232.455 180.183 233.24 180.882Z" stroke="black" stroke-width="4.52" stroke-linecap="round" stroke-linejoin="round"/>
<path d="M241.71 130.358C241.71 130.358 245 125.358 255.57 129.448C266.14 133.538 266.09 139.608 266.09 139.608" stroke="black" stroke-width="4.52" stroke-miterlimit="10"/>
<path d="M217.03 142.21C217.03 142.21 222.03 139.87 225.84 142.48" stroke="black" stroke-width="4.52" stroke-miterlimit="10"/>
<path d="M243.58 145.331C243.58 145.331 248.58 142.981 252.39 145.591" stroke="black" stroke-width="4.52" stroke-miterlimit="10"/>
<path d="M229.48 199.329C229.48 199.329 227.28 210.529 225.05 220.669C224.73 222.109 224.43 223.529 224.13 224.929C222.66 231.759 221.47 237.829 221.37 239.679C220.58 255.029 234.84 264.349 248.88 264.629C268.57 265.009 280.64 247.039 279.35 228.629C278.23 225.249 277.1 221.859 275.99 218.479C274.56 214.139 272.66 209.899 271.92 205.349C271.283 200.871 271.337 196.321 272.08 191.859C273.08 185.189 274.68 175.249 280.47 170.939C285.29 167.379 290.3 165.089 293.16 159.379C295.21 155.299 295.28 149.959 291.64 146.799C287.64 143.319 281.05 143.529 276.08 143.869C244.08 146.159 239.73 113.679 231.23 108.869C224.23 104.919 218.7 113.139 216.94 116.199L216.87 116.329C216.876 116.342 216.878 116.355 216.878 116.369C216.878 116.383 216.876 116.396 216.87 116.409C216.55 116.979 216.39 117.319 216.39 117.319" stroke="black" stroke-width="4.52" stroke-miterlimit="10"/>
<path d="M230.25 146.352C230.25 146.352 226.58 157.172 226.79 158.812C227 160.452 230.93 159.432 230.93 159.432" stroke="black" stroke-width="4.52" stroke-miterlimit="10"/>
<path d="M256.053 158.688C261.319 153.743 261.481 145.361 256.415 139.966C251.349 134.571 242.973 134.206 237.707 139.152C232.441 144.097 232.279 152.479 237.345 157.874C242.411 163.268 250.787 163.633 256.053 158.688Z" stroke="black" stroke-width="4.52" stroke-miterlimit="10"/>
<path d="M222.822 153.614C228.088 148.669 228.25 140.287 223.184 134.892C218.118 129.497 209.742 129.132 204.476 134.077C199.21 139.022 199.048 147.405 204.114 152.799C209.181 158.194 217.556 158.559 222.822 153.614Z" stroke="black" stroke-width="4.52" stroke-miterlimit="10"/>
<path d="M213.35 134.39C213.832 134.392 214.313 134.429 214.79 134.5C217.285 134.889 219.533 136.231 221.058 138.243C222.584 140.256 223.269 142.782 222.97 145.29C222.723 147.499 221.667 149.539 220.005 151.017C218.343 152.494 216.193 153.304 213.97 153.29C213.488 153.288 213.007 153.251 212.53 153.18C210.035 152.786 207.789 151.442 206.264 149.428C204.739 147.414 204.053 144.888 204.35 142.38C204.611 140.181 205.673 138.155 207.333 136.691C208.994 135.226 211.136 134.424 213.35 134.44V134.39ZM213.35 132.18C210.583 132.173 207.909 133.177 205.832 135.004C203.754 136.831 202.416 139.355 202.07 142.1C201.855 143.782 202.002 145.492 202.5 147.113C202.998 148.735 203.836 150.231 204.959 151.503C206.081 152.775 207.462 153.793 209.009 154.489C210.556 155.185 212.234 155.543 213.93 155.54C216.696 155.549 219.369 154.547 221.447 152.722C223.525 150.896 224.863 148.374 225.21 145.63C225.587 142.537 224.745 139.418 222.864 136.934C220.983 134.45 218.209 132.795 215.13 132.32C214.541 132.224 213.946 132.177 213.35 132.18Z" fill="white"/>
<path d="M233.74 146.88L226.77 145.82" stroke="black" stroke-width="4.52" stroke-miterlimit="10"/>
<path d="M141.21 345.569V311.129H64.08C63.84 311.129 63.62 311.129 63.38 311.129L62.94 311.179C62.932 311.175 62.924 311.173 62.915 311.173C62.906 311.173 62.898 311.175 62.89 311.179C62.74 311.179 62.6 311.239 62.45 311.269C62.313 311.29 62.179 311.327 62.05 311.379C61.918 311.414 61.79 311.464 61.67 311.529C61.61 311.529 61.56 311.529 61.5 311.579C61.44 311.629 61.19 311.709 61.04 311.789C60.852 311.877 60.671 311.981 60.5 312.099C60.343 312.179 60.195 312.276 60.06 312.389C59.829 312.543 59.615 312.721 59.42 312.919C59.201 313.096 59.003 313.297 58.83 313.519C58.654 313.729 58.49 313.95 58.34 314.179C58.19 314.399 58.056 314.629 57.94 314.869C57.809 315.107 57.706 315.358 57.63 315.619C57.54 315.874 57.467 316.135 57.41 316.399C57.311 316.849 57.257 317.308 57.25 317.769L56.86 338.489C56.839 338.722 56.839 338.956 56.86 339.189C56.839 339.291 56.839 339.397 56.86 339.499V339.589C56.855 339.655 56.855 339.722 56.86 339.789C56.877 339.912 56.907 340.032 56.95 340.149C56.967 340.315 57.011 340.477 57.08 340.629C57.217 341.104 57.405 341.564 57.64 341.999C57.854 342.38 58.102 342.742 58.38 343.079C58.523 343.252 58.677 343.415 58.84 343.569C58.996 343.724 59.159 343.871 59.33 344.009L59.64 344.259C59.81 344.369 59.97 344.479 60.16 344.589C60.381 344.728 60.612 344.852 60.85 344.959C61.098 345.076 61.356 345.173 61.62 345.249C62.268 345.451 62.942 345.555 63.62 345.559H78.44L82.99 343.729C85.89 343.729 89.14 342.209 92.05 342.209L94.96 345.939L141.21 345.569Z" fill="#D7E8F0"/>
<path d="M264.23 318.001V338.741C264.23 340.557 263.508 342.3 262.224 343.584C260.939 344.869 259.197 345.591 257.38 345.591H141.22V311.141H257.38C258.28 311.141 259.172 311.318 260.004 311.663C260.836 312.008 261.591 312.513 262.227 313.15C262.864 313.788 263.368 314.544 263.712 315.376C264.055 316.208 264.231 317.1 264.23 318.001Z" fill="#222222"/>
<path d="M141.21 345.57H152.89V415.73H82.26C79.716 415.849 77.169 415.614 74.69 415.03C74.44 414.96 74.18 414.87 73.92 414.78L73.78 414.72C71.821 414.057 70.153 412.735 69.06 410.98C69.067 410.961 69.067 410.94 69.06 410.92L68.84 410.56C70.9 411.05 72.99 411.45 75.07 411.76C75.479 411.848 75.893 411.911 76.31 411.95C77.31 412.09 78.31 412.2 79.36 412.31C79.489 412.33 79.621 412.33 79.75 412.31L81.37 412.45C81.911 412.51 82.455 412.54 83 412.54C83.024 412.55 83.049 412.556 83.075 412.556C83.101 412.556 83.126 412.55 83.15 412.54C83.75 412.54 84.34 412.6 84.94 412.62C85.065 412.645 85.194 412.645 85.32 412.62C85.495 412.65 85.675 412.65 85.85 412.62C86.97 412.68 88.1 412.68 89.23 412.62C90.81 412.62 92.38 412.55 93.93 412.46C95.151 412.396 96.366 412.255 97.57 412.04C97.988 411.98 98.402 411.893 98.81 411.78C99.149 411.712 99.483 411.622 99.81 411.51L99.98 411.45C100.62 411.232 101.236 410.951 101.82 410.61C104.18 409.24 105.97 406.61 105.51 403.89C105.26 402.637 104.624 401.493 103.69 400.62C103.61 400.55 103.54 400.47 103.45 400.4L103.38 400.35C102.903 399.931 102.38 399.569 101.82 399.27C100.188 398.451 98.442 397.884 96.64 397.59L95.98 397.46C96.31 397.51 96.65 397.55 96.98 397.61H97.2C99.806 398.061 102.464 398.128 105.09 397.81L105.59 397.76L105.79 397.7C107.205 397.448 108.551 396.9 109.74 396.091C110.929 395.283 111.934 394.233 112.69 393.01C112.827 392.756 112.944 392.492 113.04 392.22C113.1 392.112 113.15 391.998 113.19 391.88C113.423 391.147 113.528 390.379 113.5 389.61C113.501 389.336 113.481 389.062 113.44 388.79C113.317 387.815 112.999 386.875 112.506 386.025C112.013 385.174 111.355 384.432 110.57 383.84C110.308 383.636 110.027 383.458 109.73 383.31C108.593 382.754 107.362 382.415 106.1 382.31H105.86C105.19 382.23 104.47 382.2 103.8 382.16C98.57 381.89 93.36 381.59 88.14 381.32H87.57L79.88 380.92L75.24 380.66H74.93L70.8 380.44C71.26 380.44 71.72 380.49 72.17 380.53H72.56L74.15 380.62C78.62 380.89 83.1 381.15 87.57 381.31H88.14C88.14 381.31 88.14 381.31 88.23 381.31C89.13 381.31 90.04 381.37 90.94 381.4H91.14C93.46 381.46 95.76 381.49 98.08 381.49C100.448 381.615 102.819 381.313 105.08 380.6C106.148 380.205 107.125 379.596 107.95 378.81C108.062 378.722 108.159 378.618 108.24 378.5C109.025 377.721 109.567 376.731 109.8 375.65C110.024 374.417 109.856 373.144 109.32 372.01C109.272 371.862 109.205 371.721 109.12 371.59C108.623 370.649 107.943 369.816 107.12 369.14C105.135 367.663 102.823 366.685 100.38 366.29C98.97 366 97.57 365.76 96.14 365.6C96.111 365.59 96.079 365.59 96.05 365.6C94.164 365.384 92.268 365.267 90.37 365.25H89.86C88.86 365.25 87.76 365.25 86.71 365.25C81.71 365.4 76.83 366.33 71.88 366.25C71.83 366.098 71.83 365.933 71.88 365.78C71.933 365.671 71.997 365.567 72.07 365.47C72.26 365.259 72.496 365.095 72.76 364.99C74.364 364.484 75.993 364.06 77.64 363.72C79.315 363.201 80.946 362.553 82.52 361.78C83.05 361.52 83.58 361.23 84.11 360.96C84.15 360.938 84.186 360.911 84.22 360.88C86.239 359.754 88.13 358.413 89.86 356.88L90.3 356.5C90.57 356.26 90.85 356.02 91.1 355.77C92.544 354.484 93.708 352.915 94.52 351.16C94.706 350.712 94.847 350.247 94.94 349.77C94.98 349.622 95.01 349.472 95.03 349.32C95.071 349.059 95.091 348.795 95.09 348.53C95.09 348.28 94.97 346.11 94.93 345.86" fill="#D7E8F0"/>
<path d="M250.88 345.57V403.76C250.882 404.195 250.858 404.629 250.81 405.06L228.64 409.64C222.03 411.03 219.23 409.93 217.83 406.54C212.68 394.15 198.97 394.54 198.97 394.54L188.14 394.49C186.4 394.49 184.69 394.27 182.97 394.16C181.897 394.096 180.822 394.252 179.811 394.617C178.8 394.982 177.874 395.549 177.089 396.283C176.304 397.017 175.677 397.904 175.245 398.889C174.814 399.873 174.588 400.935 174.58 402.01C174.581 403.652 175.095 405.253 176.048 406.59C177.001 407.927 178.348 408.934 179.9 409.47L188.23 411.13C188.565 411.195 188.88 411.337 189.15 411.545C189.42 411.752 189.639 412.02 189.788 412.326C189.938 412.633 190.014 412.97 190.01 413.31C190.007 413.651 189.925 413.987 189.77 414.29C189.274 414.913 188.631 415.404 187.9 415.72H152.9V345.57H250.88Z" fill="#222222"/>
<path d="M129.17 311.129H141.21H152.89" stroke="black" stroke-width="4.52" stroke-miterlimit="10"/>
<path d="M94.5 345.588H257.37C258.289 345.594 259.199 345.407 260.04 345.038C260.854 344.693 261.592 344.19 262.21 343.558C262.846 342.924 263.351 342.169 263.694 341.338C264.037 340.508 264.213 339.617 264.21 338.718V317.998C264.21 317.099 264.033 316.208 263.689 315.377C263.344 314.546 262.84 313.791 262.204 313.155C261.568 312.519 260.813 312.014 259.981 311.67C259.15 311.326 258.26 311.148 257.36 311.148H64.08C63.84 311.148 63.62 311.148 63.38 311.148L62.94 311.198C62.278 311.31 61.637 311.522 61.04 311.828C60.86 311.918 60.68 312.028 60.5 312.138C60.343 312.219 60.196 312.316 60.06 312.428C59.834 312.589 59.62 312.766 59.42 312.958C59.211 313.146 59.014 313.346 58.83 313.558C58.654 313.769 58.49 313.989 58.34 314.218C58.19 314.438 58.07 314.678 57.94 314.908C57.81 315.138 57.72 315.408 57.63 315.658C57.54 315.914 57.467 316.174 57.41 316.438C57.311 316.889 57.257 317.348 57.25 317.808L56.88 338.548V338.878C56.87 338.995 56.87 339.112 56.88 339.228C56.88 339.368 56.88 339.498 56.88 339.628C56.875 339.695 56.875 339.762 56.88 339.828C56.88 339.938 56.94 340.078 56.97 340.188C57 340.298 57.05 340.518 57.1 340.668C57.233 341.129 57.414 341.575 57.64 341.998C57.854 342.38 58.102 342.741 58.38 343.078C58.53 343.238 58.68 343.408 58.84 343.568C58.996 343.723 59.159 343.87 59.33 344.008L59.64 344.258C59.81 344.368 59.97 344.478 60.16 344.588C60.384 344.724 60.614 344.847 60.85 344.958C61.099 345.076 61.356 345.173 61.62 345.248C62.284 345.469 62.98 345.58 63.68 345.578H78.37" stroke="black" stroke-width="4.52" stroke-miterlimit="10"/>
<path d="M68.74 410.52C68.83 410.64 68.92 410.77 69.03 410.9C69.358 411.356 69.722 411.784 70.12 412.18C70.381 412.457 70.662 412.714 70.96 412.95C71.26 413.18 71.57 413.42 71.88 413.62C72.19 413.856 72.526 414.058 72.88 414.22C73.18 414.39 73.47 414.53 73.78 414.68L73.92 414.74C74.273 414.909 74.641 415.043 75.02 415.14C75.347 415.246 75.681 415.33 76.02 415.39C76.157 415.434 76.297 415.464 76.44 415.48C76.753 415.551 77.07 415.601 77.39 415.63C77.788 415.684 78.189 415.707 78.59 415.7H187.85C188.581 415.384 189.224 414.893 189.72 414.27C189.873 413.966 189.954 413.631 189.956 413.291C189.958 412.95 189.881 412.614 189.732 412.309C189.583 412.003 189.366 411.736 189.097 411.528C188.827 411.32 188.514 411.177 188.18 411.11L179.85 409.45C178.298 408.914 176.952 407.907 175.998 406.57C175.045 405.233 174.532 403.632 174.53 401.99C174.538 400.915 174.764 399.853 175.195 398.868C175.627 397.884 176.254 396.997 177.039 396.263C177.824 395.528 178.75 394.961 179.761 394.596C180.772 394.231 181.847 394.076 182.92 394.14C184.64 394.25 186.35 394.45 188.09 394.47L198.92 394.52C198.92 394.52 212.63 394.12 217.78 406.52C219.18 409.91 221.98 411.01 228.59 409.62L250.81 405.04C250.858 404.608 250.882 404.174 250.88 403.74V345.59H141.21" stroke="black" stroke-width="4.52" stroke-miterlimit="10"/>
<path d="M256.9 257.209V270.579C256.9 271.751 256.434 272.876 255.605 273.704C254.776 274.533 253.652 274.999 252.48 274.999H148.29V252.789H252.48C253.652 252.789 254.776 253.255 255.605 254.084C256.434 254.913 256.9 256.037 256.9 257.209Z" fill="#222222"/>
<path d="M148.29 252.789V274.999H98.29C97.704 274.998 97.124 274.88 96.584 274.653C96.043 274.426 95.554 274.094 95.142 273.677C94.731 273.259 94.407 272.764 94.189 272.22C93.97 271.677 93.862 271.095 93.87 270.509L94.11 257.119C94.131 255.962 94.606 254.859 95.433 254.049C96.26 253.239 97.372 252.786 98.53 252.789H148.29Z" fill="#D7E8F0"/>
<path d="M248.29 275V303.41C248.285 305.459 247.469 307.422 246.02 308.87C244.572 310.319 242.608 311.135 240.56 311.14H155.83V275H248.29Z" fill="#222222"/>
<path d="M155.83 275V311.14H107.89C105.841 311.137 103.876 310.322 102.427 308.873C100.978 307.424 100.163 305.459 100.16 303.41V275H155.83Z" fill="#D7E8F0"/>
<path d="M141.21 311.141V345.581" stroke="black" stroke-width="4.52" stroke-miterlimit="10"/>
<path d="M152.89 345.578V415.738" stroke="black" stroke-width="4.52" stroke-miterlimit="10"/>
<path d="M256.9 257.209V270.579C256.9 271.751 256.434 272.876 255.605 273.704C254.776 274.533 253.652 274.999 252.48 274.999H148.29V252.789H252.48C253.652 252.789 254.776 253.255 255.605 254.084C256.434 254.913 256.9 256.037 256.9 257.209Z" stroke="black" stroke-width="4.52" stroke-miterlimit="10"/>
<path d="M148.29 252.789V274.999H98.29C97.704 274.998 97.124 274.88 96.584 274.653C96.043 274.426 95.554 274.094 95.142 273.677C94.731 273.259 94.407 272.764 94.189 272.22C93.97 271.677 93.862 271.095 93.87 270.509L94.11 257.119C94.131 255.962 94.606 254.859 95.433 254.049C96.26 253.239 97.372 252.786 98.53 252.789H148.29Z" stroke="black" stroke-width="4.52" stroke-miterlimit="10"/>
<path d="M248.29 275V303.41C248.285 305.459 247.469 307.422 246.02 308.87C244.572 310.319 242.608 311.135 240.56 311.14H155.83V275H248.29Z" stroke="black" stroke-width="4.52" stroke-miterlimit="10"/>
<path d="M155.83 275V311.14H107.89C105.841 311.137 103.876 310.322 102.427 308.873C100.978 307.424 100.163 305.459 100.16 303.41V275H155.83Z" stroke="black" stroke-width="4.52" stroke-miterlimit="10"/>
<path d="M203.76 190.158V203.528C203.767 204.113 203.657 204.693 203.438 205.235C203.219 205.777 202.894 206.27 202.483 206.686C202.072 207.102 201.583 207.432 201.043 207.657C200.503 207.882 199.925 207.998 199.34 207.998H124.34V185.738H199.34C200.512 185.738 201.636 186.204 202.465 187.033C203.294 187.862 203.76 188.986 203.76 190.158Z" fill="#222222"/>
<path d="M124.38 185.73H77.21V207.95H124.38V185.73Z" fill="#D7E8F0"/>
<path d="M195.16 208V245.54C195.155 247.589 194.339 249.552 192.89 251C191.442 252.449 189.479 253.265 187.43 253.27H131.93V208H195.16Z" fill="#222222"/>
<path d="M131.93 208V253.27H83.99C83.784 253.291 83.576 253.291 83.37 253.27V208H131.93Z" fill="#D7E8F0"/>
<path d="M203.76 190.158V203.528C203.767 204.113 203.657 204.693 203.438 205.235C203.219 205.777 202.894 206.27 202.483 206.686C202.072 207.102 201.583 207.432 201.043 207.657C200.503 207.882 199.925 207.998 199.34 207.998H124.34V185.738H199.34C200.512 185.738 201.636 186.204 202.465 187.033C203.294 187.862 203.76 188.986 203.76 190.158Z" stroke="black" stroke-width="4.52" stroke-miterlimit="10"/>
<path d="M124.38 185.738V207.998H74.38C73.794 207.998 73.213 207.882 72.672 207.655C72.131 207.429 71.641 207.097 71.229 206.679C70.818 206.261 70.494 205.766 70.276 205.221C70.058 204.677 69.951 204.095 69.96 203.508L70.2 190.108C70.221 188.952 70.696 187.85 71.524 187.042C72.351 186.233 73.463 185.783 74.62 185.788L124.38 185.738Z" stroke="black" stroke-width="4.52" stroke-miterlimit="10"/>
<path d="M195.16 208V245.54C195.155 247.589 194.339 249.552 192.89 251C191.442 252.449 189.479 253.265 187.43 253.27H131.93V208H195.16Z" stroke="black" stroke-width="4.52" stroke-miterlimit="10"/>
<path d="M131.93 208V253.27H83.99C81.941 253.267 79.976 252.452 78.527 251.003C77.078 249.554 76.263 247.589 76.26 245.54V208H131.93Z" stroke="black" stroke-width="4.52" stroke-miterlimit="10"/>
<path d="M187.19 144.15V152.93C187.19 153.312 187.115 153.69 186.968 154.042C186.822 154.395 186.607 154.715 186.337 154.984C186.067 155.254 185.746 155.467 185.393 155.612C185.04 155.757 184.662 155.831 184.28 155.83H135.07V141.25H184.28C184.662 141.249 185.04 141.323 185.393 141.468C185.746 141.613 186.067 141.826 186.337 142.096C186.607 142.365 186.822 142.685 186.968 143.038C187.115 143.39 187.19 143.768 187.19 144.15Z" fill="#222222"/>
<path d="M135.07 141.25H104.09V155.83H135.07V141.25Z" fill="#D7E8F0"/>
<path d="M181.54 155.828V180.478C181.535 181.823 180.998 183.111 180.046 184.061C179.094 185.011 177.805 185.545 176.46 185.548H140.03V155.828H181.54Z" fill="#222222"/>
<path d="M140.03 155.82H108.62V185.54H140.03V155.82Z" fill="#D7E8F0"/>
<path d="M187.19 144.15V152.93C187.19 153.312 187.115 153.69 186.968 154.042C186.822 154.395 186.607 154.715 186.337 154.984C186.067 155.254 185.746 155.467 185.393 155.612C185.04 155.757 184.662 155.831 184.28 155.83H135.07V141.25H184.28C184.662 141.249 185.04 141.323 185.393 141.468C185.746 141.613 186.067 141.826 186.337 142.096C186.607 142.365 186.822 142.685 186.968 143.038C187.115 143.39 187.19 143.768 187.19 144.15Z" stroke="black" stroke-width="4.52" stroke-miterlimit="10"/>
<path d="M135.07 141.249V155.829H102.24C101.851 155.828 101.466 155.749 101.108 155.597C100.751 155.444 100.427 155.221 100.156 154.942C99.886 154.662 99.675 154.331 99.534 153.968C99.394 153.605 99.328 153.218 99.34 152.829L99.5 144.039C99.516 143.281 99.828 142.558 100.37 142.027C100.913 141.496 101.641 141.199 102.4 141.199L135.07 141.249Z" stroke="black" stroke-width="4.52" stroke-miterlimit="10"/>
<path d="M181.54 155.828V180.478C181.535 181.823 180.998 183.111 180.046 184.061C179.094 185.011 177.805 185.545 176.46 185.548H140.03V155.828H181.54Z" stroke="black" stroke-width="4.52" stroke-miterlimit="10"/>
<path d="M140.03 155.828V185.548H108.55C107.206 185.545 105.918 185.01 104.968 184.06C104.018 183.11 103.483 181.822 103.48 180.478V155.828H140.03Z" stroke="black" stroke-width="4.52" stroke-miterlimit="10"/>
<path d="M178.55 106.66V114C178.547 114.644 178.291 115.261 177.835 115.716C177.38 116.171 176.764 116.428 176.12 116.43H135.01V104.23H176.12C176.439 104.23 176.755 104.293 177.05 104.415C177.345 104.538 177.613 104.717 177.838 104.942C178.064 105.168 178.243 105.436 178.365 105.731C178.487 106.025 178.55 106.341 178.55 106.66Z" fill="#222222"/>
<path d="M135.02 104.23H110.1V116.42H135.02V104.23Z" fill="#D7E8F0"/>
<path d="M173.83 116.422V137.002C173.825 138.125 173.376 139.2 172.582 139.994C171.788 140.788 170.713 141.237 169.59 141.242H139.15V116.422H173.83Z" fill="#222222"/>
<path d="M139.15 116.422V141.252H112.86C112.212 141.255 111.572 141.107 110.991 140.821C110.41 140.534 109.903 140.117 109.51 139.602H113.75V116.422H139.15Z" fill="#D7E8F0"/>
<path d="M178.55 106.66V114C178.547 114.644 178.291 115.261 177.835 115.716C177.38 116.171 176.764 116.428 176.12 116.43H135.01V104.23H176.12C176.439 104.23 176.755 104.293 177.05 104.415C177.345 104.538 177.613 104.717 177.838 104.942C178.064 105.168 178.243 105.436 178.365 105.731C178.487 106.025 178.55 106.341 178.55 106.66Z" stroke="black" stroke-width="4.52" stroke-miterlimit="10"/>
<path d="M135.01 104.23V116.42H107.58C107.258 116.419 106.94 116.354 106.644 116.229C106.347 116.104 106.079 115.921 105.854 115.691C105.629 115.461 105.451 115.189 105.332 114.89C105.213 114.592 105.155 114.272 105.16 113.95L105.29 106.61C105.3 105.976 105.56 105.37 106.013 104.925C106.465 104.48 107.075 104.23 107.71 104.23H135.01Z" stroke="black" stroke-width="4.52" stroke-miterlimit="10"/>
<path d="M173.83 116.422V137.002C173.825 138.125 173.376 139.2 172.582 139.994C171.788 140.788 170.713 141.237 169.59 141.242H139.15V116.422H173.83Z" stroke="black" stroke-width="4.52" stroke-miterlimit="10"/>
<path d="M139.15 116.422V141.252H112.85C111.73 141.241 110.659 140.789 109.871 139.993C109.082 139.197 108.64 138.122 108.64 137.002V116.422H139.15Z" stroke="black" stroke-width="4.52" stroke-miterlimit="10"/>
<path d="M127.2 878.399C115.68 879.379 104.157 880.349 92.63 881.309C89.902 881.521 87.356 882.758 85.503 884.771C83.65 886.784 82.627 889.423 82.64 892.159C82.64 893.584 82.921 894.996 83.467 896.312C84.013 897.629 84.813 898.824 85.822 899.831C86.831 900.838 88.028 901.636 89.346 902.18C90.663 902.723 92.075 903.002 93.5 902.999L185.64 902.899C186.005 902.899 186.364 902.814 186.69 902.652C187.016 902.49 187.301 902.254 187.521 901.963C187.74 901.673 187.89 901.335 187.958 900.977C188.025 900.619 188.009 900.25 187.91 899.899C166.362 821.248 154.629 740.232 152.98 658.699" stroke="black" stroke-width="4.52" stroke-miterlimit="10"/>
<path d="M300.74 394.168V394.148" stroke="black" stroke-width="4.52" stroke-miterlimit="10"/>
<path d="M279.42 504.84C278.21 510.12 276.97 515.39 275.66 520.65C275.31 522.07 274.94 523.5 274.58 524.9C260.69 579.24 239.98 633.77 250.39 688.76C264.64 764 313 844 348.64 899.76C349.46 901.06 337.43 903.01 335.89 903C308.36 902.76 270.67 902.53 241.54 902.29C238.793 902.269 236.165 901.165 234.227 899.217C232.289 897.27 231.198 894.637 231.19 891.89V891.71C231.18 889.237 232.049 886.841 233.643 884.951C235.237 883.06 237.451 881.798 239.89 881.39C250.78 879.58 265.99 877.77 272.82 875.97L259.26 860.49C235.64 832.09 209.64 803 192.35 770.1C165.24 718.41 149.71 661 145.1 602.86C142.58 571.27 144.57 539.48 152.1 508.7" stroke="black" stroke-width="4.52" stroke-miterlimit="10"/>
<path d="M195.16 225.269C199.488 223.08 203.962 221.192 208.55 219.619C213.226 218.01 218.016 216.753 222.88 215.859C222.88 215.859 222.93 215.859 222.97 215.859L224.15 215.639C224.54 215.569 224.92 215.509 225.31 215.459C225.7 215.409 225.91 215.349 226.2 215.309" stroke="black" stroke-width="4.52" stroke-miterlimit="10"/>
<path d="M92.01 415.738C89.417 425.658 86.943 435.615 84.59 445.608C81.363 459.388 78.41 473.218 75.73 487.098C62.73 554.978 57.15 624.908 66.87 693.598C71.512 726.54 79.082 759.002 89.49 790.598C94.697 806.378 100.603 821.902 107.21 837.168C109.09 841.478 123.53 878.418 127.16 878.418" stroke="black" stroke-width="4.52" stroke-miterlimit="10"/>
<path d="M263.43 456.472C263.639 456.485 263.846 456.515 264.05 456.562L265.05 456.702C272.8 457.912 280.74 458.952 288.71 459.702C344.14 464.962 399.92 456.652 395.02 399.472C392.02 363.682 380.02 343.052 365.61 311.022C364.51 308.595 363.407 306.185 362.3 303.792C351.06 279.582 338.37 256.792 315.97 241.312C314.4 240.212 312.81 239.172 311.15 238.162C300.51 231.762 289.237 226.481 277.51 222.402L277.34 222.352" stroke="black" stroke-width="4.52" stroke-miterlimit="10"/>
<path d="M284.5 323.25L310.17 372.54C311.521 375.091 312.095 377.981 311.823 380.854C311.552 383.727 310.445 386.458 308.64 388.71C304.33 394.17 297.7 395.12 291.3 396.71L250.8 405.06L228.64 409.64C222.03 411.03 219.23 409.93 217.83 406.54C212.68 394.15 198.97 394.54 198.97 394.54L188.14 394.49C186.4 394.49 184.69 394.27 182.97 394.16C181.897 394.096 180.822 394.251 179.811 394.616C178.8 394.981 177.874 395.548 177.089 396.283C176.304 397.017 175.677 397.904 175.245 398.888C174.814 399.873 174.588 400.935 174.58 402.01C174.581 403.652 175.095 405.253 176.048 406.59C177.002 407.927 178.348 408.934 179.9 409.47L188.23 411.13C188.564 411.197 188.877 411.34 189.146 411.548C189.416 411.756 189.633 412.023 189.782 412.329C189.931 412.635 190.008 412.971 190.006 413.311C190.004 413.651 189.923 413.986 189.77 414.29C189.274 414.913 188.631 415.404 187.9 415.72H131.78C131.15 415.776 130.541 415.972 129.996 416.293C129.452 416.614 128.985 417.053 128.631 417.576C128.277 418.1 128.043 418.696 127.948 419.321C127.853 419.946 127.898 420.585 128.08 421.19C129.08 425.5 134.03 427.91 137.89 429.02C166.39 437.28 195 443.93 224.17 449.38C237.763 451.92 251.387 454.353 265.04 456.68" stroke="black" stroke-width="4.52" stroke-miterlimit="10"/>
<path d="M78.4 345.59C69.56 349.59 60.97 349.41 56.86 358.51C52.654 368.355 50.736 379.026 51.25 389.72C52.03 402.8 60.68 409.88 74.25 411.63C79.828 412.567 85.49 412.902 91.14 412.63C94.52 412.45 98.14 412.47 101.25 411.04C105.38 409.18 107.44 403.73 103.44 400.48C101.36 398.78 98.51 398.16 95.88 397.63C98.8 397.78 101.58 397.89 103.88 397.94C108.63 398.07 113.44 394.8 113.44 389.7C113.44 384.22 108.94 382.45 104.27 382.21L70.71 380.48L92.87 381.55C98 381.81 107.39 382.7 109.4 376.36C109.824 374.999 109.802 373.539 109.338 372.192C108.874 370.845 107.992 369.681 106.82 368.87C102.82 366.08 97.4 365.68 92.72 365.42C85.897 364.887 79.037 365.062 72.25 365.94C72.88 365.77 71.1 365.94 71.68 365.77C77.15 364.05 79.93 363.77 84.68 360.65" stroke="black" stroke-width="4.52" stroke-miterlimit="10"/>
<path d="M78.4 345.591C79.29 345.191 80.4 344.661 81.58 344.151C81.92 344.001 82.29 343.861 82.65 343.711C83.01 343.561 83.35 343.441 83.71 343.311L84.77 342.961L85.3 342.801C85.52 342.721 85.76 342.671 85.98 342.611L86.36 342.541C86.789 342.432 87.223 342.345 87.66 342.281C88.322 342.188 88.993 342.164 89.66 342.211L90.12 342.271C90.232 342.269 90.344 342.286 90.45 342.321C90.67 342.321 90.89 342.411 91.1 342.471C91.348 342.536 91.59 342.627 91.82 342.741C92.202 342.92 92.558 343.148 92.88 343.421C92.986 343.5 93.083 343.591 93.17 343.691C93.486 344.014 93.768 344.369 94.01 344.751C94.01 344.751 99.6 352.351 84.22 360.971" stroke="black" stroke-width="4.52" stroke-miterlimit="10"/>
<path d="M96.27 397.73C96.27 397.73 79.32 396.02 76.8 395.84" stroke="black" stroke-width="4.52" stroke-miterlimit="10"/>
<path d="M82.31 455.552C82.31 455.552 221.64 446.402 279.42 504.842C282.35 507.252 292.1 519.202 274.58 524.912" stroke="black" stroke-width="4.52" stroke-miterlimit="10"/>
<path d="M306.71 461C306.71 461 295.09 505 283.47 519.2" stroke="black" stroke-width="4.52" stroke-miterlimit="10"/>
<path d="M278.01 503.441C278.01 503.441 290.29 510.661 281.49 521.391L274.06 524.911L279.28 505.441L278.01 503.441Z" fill="black"/>
<path d="M319.76 479.359C325.53 418.939 310.93 400.119 299.86 394.359L300.74 394.119C339.62 388.879 347.74 463.269 349.1 480.529L319.76 479.359Z" fill="#D7E8F0"/>
<path d="M319.13 484.111C324.9 423.691 310.93 400.111 299.86 394.391L300.74 394.151C339.62 388.911 347.99 466.841 349.34 484.151L319.13 484.111Z" fill="#D7E8F0"/>
<path d="M263.7 484.66H232.17V668.03H263.7V484.66Z" fill="white"/>
<path d="M300.74 394.15C344.74 388.23 349.34 484.15 349.34 484.15H319.13C324.23 390.36 284.67 398.15 284.67 398.15C286.01 397.94 300.74 394.15 300.74 394.15Z" stroke="black" stroke-width="4.52" stroke-miterlimit="10"/>
<path d="M418.89 492.789H272V667.479H418.89V492.789Z" fill="#222222"/>
<path d="M418.89 483.539H264.23V667.479H418.89V483.539Z" fill="white"/>
<path d="M420.77 490.999V660.629C420.77 665.439 416.07 669.339 410.26 669.339H241.33C235.52 669.339 230.81 665.439 230.81 660.629V490.999C230.81 486.189 235.52 482.289 241.33 482.289H410.26C416.07 482.249 420.77 486.149 420.77 490.999Z" fill="#222222"/>
<path d="M411.74 499.078V653.608C411.748 654.642 411.552 655.667 411.164 656.625C410.776 657.583 410.203 658.455 409.477 659.191C408.752 659.927 407.889 660.514 406.937 660.916C405.985 661.319 404.964 661.531 403.93 661.538H278.5C277.467 661.531 276.445 661.319 275.493 660.916C274.541 660.514 273.678 659.927 272.953 659.191C272.227 658.455 271.654 657.583 271.266 656.625C270.878 655.667 270.682 654.642 270.69 653.608V499.078C270.682 498.045 270.878 497.02 271.266 496.062C271.654 495.104 272.227 494.232 272.953 493.496C273.678 492.759 274.541 492.173 275.493 491.77C276.445 491.368 277.467 491.156 278.5 491.148H403.93C404.964 491.156 405.985 491.368 406.937 491.77C407.889 492.173 408.752 492.759 409.477 493.496C410.203 494.232 410.776 495.104 411.164 496.062C411.552 497.02 411.748 498.045 411.74 499.078Z" fill="#222222"/>
<path d="M418.89 484.109H264.22V667.479H418.89V484.109Z" stroke="black" stroke-width="4.52" stroke-miterlimit="10"/>
<path d="M263.58 484.109H232.7V667.479H263.58V484.109Z" stroke="black" stroke-width="4.52" stroke-miterlimit="10"/>
<path d="M232.7 667.48L247.94 645.59L263.58 667.48" stroke="black" stroke-width="4.52" stroke-miterlimit="10"/>
<path d="M248.14 484.109L247.94 645.589" stroke="black" stroke-width="4.52" stroke-miterlimit="10"/>
<path d="M294.16 459.699V484.109" stroke="black" stroke-width="4.52" stroke-miterlimit="10"/>
<path d="M319.47 461.002C319.47 461.002 296.2 460.602 291.95 459.392C291.95 459.392 294.16 456.662 294.16 466.482C294.16 476.302 293.29 484.072 295.36 484.072C297.43 484.072 318.09 483.502 318.09 483.502C318.09 483.502 319.74 482.022 319.43 477.502C319.12 472.982 319.47 461.002 319.47 461.002Z" fill="black"/>
<path d="M0 902.949H653.28" stroke="black" stroke-width="4.52" stroke-miterlimit="10"/>
<path d="M440.88 139.439C447.386 139.439 452.66 134.165 452.66 127.659C452.66 121.153 447.386 115.879 440.88 115.879C434.374 115.879 429.1 121.153 429.1 127.659C429.1 134.165 434.374 139.439 440.88 139.439Z" fill="#D7E8F0"/>
<path d="M411.05 175.65C411.05 167.739 414.193 160.152 419.787 154.557C425.381 148.963 432.969 145.82 440.88 145.82C448.791 145.82 456.379 148.963 461.973 154.557C467.567 160.152 470.71 167.739 470.71 175.65H411.05Z" fill="#D7E8F0"/>
<path d="M471.66 105.691H410.1C404.964 105.691 400.8 109.855 400.8 114.991V176.551C400.8 181.688 404.964 185.851 410.1 185.851H471.66C476.796 185.851 480.96 181.688 480.96 176.551V114.991C480.96 109.855 476.796 105.691 471.66 105.691Z" stroke="#CCDDE2" stroke-width="4.52" stroke-miterlimit="10"/>
<path d="M443.79 710.502L452.51 728.172C452.745 728.643 453.09 729.05 453.517 729.359C453.944 729.667 454.439 729.867 454.96 729.942L474.45 732.772C475.049 732.859 475.612 733.113 476.075 733.504C476.538 733.895 476.882 734.407 477.07 734.983C477.257 735.559 477.279 736.176 477.134 736.764C476.99 737.352 476.683 737.888 476.25 738.312L462.14 752.062C461.765 752.431 461.484 752.886 461.322 753.388C461.16 753.889 461.122 754.422 461.21 754.942L464.54 774.352C464.643 774.949 464.576 775.563 464.348 776.124C464.121 776.686 463.74 777.172 463.25 777.529C462.76 777.886 462.181 778.099 461.576 778.143C460.972 778.188 460.367 778.063 459.83 777.782L442.39 768.612C441.927 768.369 441.413 768.242 440.89 768.242C440.368 768.242 439.853 768.369 439.39 768.612L421.95 777.782C421.413 778.063 420.808 778.188 420.204 778.143C419.6 778.099 419.02 777.886 418.53 777.529C418.04 777.172 417.66 776.686 417.432 776.124C417.204 775.563 417.137 774.949 417.24 774.352L420.57 754.942C420.661 754.422 420.624 753.888 420.462 753.386C420.3 752.884 420.018 752.43 419.64 752.062L405.53 738.312C405.097 737.888 404.791 737.352 404.646 736.764C404.501 736.176 404.523 735.559 404.711 734.983C404.898 734.407 405.242 733.895 405.705 733.504C406.168 733.113 406.731 732.859 407.33 732.772L426.83 729.942C427.35 729.867 427.844 729.667 428.269 729.359C428.694 729.05 429.038 728.643 429.27 728.172L437.99 710.502C438.261 709.965 438.676 709.515 439.188 709.2C439.7 708.885 440.289 708.719 440.89 708.719C441.491 708.719 442.08 708.885 442.592 709.2C443.104 709.515 443.519 709.965 443.79 710.502Z" fill="#D7E8F0"/>
<path d="M311.89 754.898H378.11" stroke="#CCDDE2" stroke-width="4.52" stroke-miterlimit="10"/>
</svg>
